<svg width="70" height="37" viewBox="0 0 70 37" fill="none" xmlns="http://www.w3.org/2000/svg">
<g clip-path="url(#clip0_176_16062)">
<path fill-rule="evenodd" clip-rule="evenodd" d="M58.5371 22.2152V14.4375H68.3349C68.5531 14.4374 68.7692 14.4803 68.9708 14.5637C69.1725 14.6472 69.3557 14.7695 69.51 14.9238C69.6644 15.078 69.7868 15.2612 69.8704 15.4627C69.954 15.6643 69.997 15.8804 69.9971 16.0986V20.5541C69.9971 21.4708 69.2527 22.2152 68.3349 22.2152H58.5371ZM67.2621 15.8525H60.4427V20.8002H67.2621C67.7199 20.8002 68.0921 20.4291 68.0921 19.9702V16.6819C68.0921 16.223 67.7199 15.8525 67.2621 15.8525Z" fill="#696C70"/>
<path d="M1.64833 14.4483C1.21126 14.4483 0.792088 14.6219 0.482982 14.9309C0.173876 15.2399 0.00014731 15.659 0 16.0961L0 20.5161C0.000294595 20.953 0.174106 21.3719 0.483212 21.6807C0.792319 21.9895 1.21141 22.1629 1.64833 22.1627H11.3672V20.7594H2.71389C2.25833 20.7594 1.89 20.3905 1.89 19.9361V18.9483H10.6711V17.5461H1.89V16.6749C1.89 16.2194 2.25833 15.8522 2.71389 15.8522H11.3667V14.4483H1.64833ZM20.3306 17.3422L16.6833 14.5199H14.2111L19.0939 18.2988L14.2106 22.0783H16.6839L20.3306 19.2561L23.9767 22.0783H26.45L21.5667 18.2983L26.45 14.5205H23.9767L20.3306 17.3422ZM29.2939 16.1022C29.2942 15.6652 29.468 15.2463 29.7771 14.9375C30.0862 14.6287 30.5053 14.4553 30.9422 14.4555H40.6606V15.8583H32.0067C31.5511 15.8583 31.1828 16.2266 31.1828 16.6816V17.5516H39.9644V18.9549H31.1833V19.9438C31.1833 20.3972 31.5522 20.7661 32.0072 20.7661H40.6611V22.1699H30.9428C30.5059 22.1701 30.0868 21.9967 29.7777 21.6879C29.4685 21.3791 29.2947 20.9602 29.2944 20.5233L29.2939 16.1022ZM45.5889 14.4616C45.3724 14.4615 45.1581 14.504 44.9581 14.5867C44.7581 14.6694 44.5763 14.7907 44.4232 14.9436C44.2701 15.0966 44.1486 15.2782 44.0657 15.4782C43.9828 15.6781 43.9401 15.8924 43.94 16.1088V20.5294C43.9401 20.7458 43.9828 20.9601 44.0657 21.16C44.1486 21.36 44.2701 21.5416 44.4232 21.6946C44.5763 21.8475 44.7581 21.9688 44.9581 22.0515C45.1581 22.1343 45.3724 22.1768 45.5889 22.1766H55.3072V20.7738H46.6539C46.1983 20.7738 45.8294 20.4044 45.8294 19.9499V18.9622H54.6106V17.5577H45.8294V16.6888C45.8294 16.2333 46.1983 15.8649 46.6539 15.8649H55.3072V14.4616H45.5889Z" fill="#696C70"/>
</g>
<defs>
<clipPath id="clip0_176_16062">
<rect width="70" height="7.77778" fill="white" transform="translate(0 14.4375)"/>
</clipPath>
</defs>
</svg>
