<svg width="60" height="37" viewBox="0 0 60 37" fill="none" xmlns="http://www.w3.org/2000/svg">
<path d="M3.40856 14.9082C2.35019 16.5113 1.46692 18.2506 0.758754 20.1144C0.529182 20.7136 0 22.2973 0 22.3751C0 22.3945 0.778209 22.4062 1.85214 22.4023L3.70428 22.3906L3.92607 21.8848C4.49805 20.5813 4.8677 20.0249 5.42801 19.6241C6.01945 19.2039 6.63034 19.0288 7.73929 18.9626L8.17509 18.9354L8.05836 19.1883C7.80933 19.7486 6.92606 22.2155 6.92606 22.3595C6.92606 22.4023 7.25291 22.4101 8.77042 22.4101H10.6109L12.5447 18.3556C13.607 16.1222 14.4747 14.2856 14.4747 14.2661C14.4747 14.2506 13.6381 14.2389 12.6148 14.2389H10.7587L10.3657 14.8692C9.99999 15.4607 9.40855 16.4724 9.10505 17.0249L8.97664 17.2622L8.19454 17.2895C7.37353 17.3167 6.54863 17.3712 6.18676 17.4296C6.07003 17.4451 5.96886 17.4568 5.96108 17.449C5.94941 17.4373 7.1712 14.8381 7.39688 14.3829L7.47081 14.2389H5.66147H3.85214L3.40856 14.9082Z" fill="#696C70"/>
<path d="M23.735 14.2818C21.8051 14.4141 20.4899 14.7876 19.1825 15.5814C16.8984 16.9666 14.9413 18.7604 12.3576 21.846L11.9023 22.3907L13.7506 22.4024L15.6027 22.4102L16.0385 21.9705C16.5055 21.4997 16.7311 21.3557 17.3031 21.1534C17.8984 20.9394 18.3304 20.8849 19.5288 20.8615C20.486 20.846 20.63 20.8538 20.6105 20.9004C20.5521 21.06 20.1981 22.1728 20.1747 22.2857L20.1475 22.4102H21.6455H23.1436L23.1864 22.3012C23.237 22.165 25.879 15.0794 26.0541 14.5969L26.1864 14.239L25.2019 14.2429C24.665 14.2468 24.0035 14.2662 23.735 14.2818ZM22.6066 16.204C22.6066 16.2156 22.4665 16.5075 22.2914 16.8499C21.9724 17.4958 21.5872 18.3362 21.3576 18.8966L21.2292 19.2195H19.7973C18.4432 19.2195 18.3654 19.2156 18.4004 19.1495C18.451 19.06 19.7467 17.7837 20.1397 17.4452C20.8868 16.7915 21.4549 16.4763 22.2759 16.2623C22.5794 16.1806 22.6066 16.1767 22.6066 16.204Z" fill="#696C70"/>
<path d="M27.7968 14.4608C27.8162 14.6514 28.4427 22.3285 28.4427 22.3907C28.4427 22.4024 29.252 22.4102 30.2443 22.4102L32.0419 22.4063L35.9758 18.6436C38.1431 16.5736 40.0653 14.737 40.2481 14.558L40.5828 14.239H38.5011H36.4193L34.0069 16.6125C32.68 17.916 31.5789 18.9861 31.5633 18.9861C31.5478 18.9861 31.431 17.9238 31.3026 16.6203L31.0692 14.2584L29.4232 14.2468L27.7734 14.239L27.7968 14.4608Z" fill="#696C70"/>
<path d="M47.4324 14.2662C44.9382 14.4024 43.518 14.8693 41.8449 16.1067C41.2534 16.5464 40.9421 16.8343 37.981 19.6631L35.1289 22.3907L36.9888 22.4024L38.8526 22.4102L39.2223 22.025C39.7242 21.4958 40.0705 21.2857 40.7203 21.095C41.3351 20.9121 41.6114 20.881 42.7709 20.8654L43.8915 20.846L43.7904 21.1106C43.7359 21.2584 43.6036 21.6047 43.5024 21.8849L43.3157 22.3907L44.8371 22.4024C45.6736 22.4063 46.3701 22.3985 46.3857 22.3829C46.4557 22.3012 47.5219 19.667 48.0355 18.3051C48.4207 17.2896 49.4168 14.3635 49.4168 14.2545C49.4168 14.239 47.7982 14.2468 47.4324 14.2662ZM45.627 16.7565C45.4908 17.0755 45.1989 17.7565 44.9771 18.274L44.5725 19.2195H43.0861H41.5997L42.2884 18.5464C43.6775 17.1845 44.1172 16.8148 44.6425 16.5541C44.9538 16.3985 45.6114 16.1923 45.8059 16.1845C45.8565 16.1845 45.8215 16.2973 45.627 16.7565Z" fill="#696C70"/>
<path d="M50.3584 17.4957C49.6891 19.2895 49.1249 20.8537 49.1055 20.9705C48.981 21.6319 49.3545 22.1027 50.1755 22.3168C50.4284 22.379 50.7436 22.3868 54.4401 22.3985L58.4284 22.414L59.2144 21.5385C59.6463 21.0561 60.0004 20.6514 60.0004 20.6397C60.0004 20.6319 58.4206 20.6164 56.4907 20.6125C53.2572 20.6008 52.9654 20.5969 52.8564 20.5347C52.6308 20.4101 52.6308 20.274 52.8603 19.7487C53.1638 19.0522 53.4635 18.2545 53.7825 17.2934C54.1016 16.3284 54.2728 15.9471 54.5685 15.5697C54.8175 15.2467 55.3662 14.7331 55.6813 14.5269C55.8292 14.4296 55.9537 14.3245 55.9537 14.2973C55.9537 14.2467 55.6502 14.2389 53.7631 14.2389H51.5685L50.3584 17.4957Z" fill="#696C70"/>
</svg>
