<svg width="51" height="37" viewBox="0 0 51 37" fill="none" xmlns="http://www.w3.org/2000/svg">
<g clip-path="url(#clip0_176_16115)">
<g clip-path="url(#clip1_176_16115)">
<path d="M38.1837 22.5935V25.5977H39.6204C40.1864 25.5977 40.6218 25.467 40.9701 25.1623C41.3184 24.8575 41.4926 24.4657 41.4926 23.9867C41.4926 23.5514 41.3184 23.203 41.0136 22.9418C40.7089 22.6806 40.23 22.55 39.664 22.55H38.1837V22.5935ZM43.7566 30.1692H42.3198L40.7524 27.8181C40.4476 27.3392 40.1429 27.0344 39.9252 26.8603C39.664 26.6861 39.3592 26.599 39.0109 26.599H38.1401V30.1692H36.921V21.6357H39.751C40.6653 21.6357 41.362 21.8534 41.8844 22.2452C42.4069 22.637 42.6681 23.203 42.6681 23.9432C42.6681 25.1187 41.9715 25.9024 40.5783 26.2507V26.2943C40.8395 26.3813 41.0572 26.5555 41.2313 26.7297C41.4055 26.9038 41.6667 27.2086 41.9715 27.6875L43.7566 30.1692ZM28.0827 25.9024C28.0827 26.9473 28.3875 27.7746 28.9535 28.3841C29.5195 28.9937 30.2597 29.2984 31.2175 29.2984C32.2189 29.2984 33.0026 28.9937 33.5686 28.3841C34.1346 27.7746 34.4394 26.9473 34.4394 25.8589C34.4394 24.7704 34.1781 23.8997 33.6121 23.2901C33.0461 22.6806 32.306 22.3758 31.3481 22.3758C30.3903 22.3758 29.6066 22.6806 29.0406 23.3337C28.3875 24.0738 28.0827 24.901 28.0827 25.9024ZM26.8201 25.9895C26.8201 24.5963 27.212 23.5078 28.0392 22.7241C28.8664 21.8969 29.9549 21.5051 31.3481 21.5051C32.6543 21.5051 33.6992 21.8969 34.4829 22.6806C35.2666 23.4643 35.6584 24.5092 35.6584 25.7718C35.6584 27.165 35.2666 28.2535 34.4394 29.0807C33.6121 29.908 32.5672 30.2998 31.174 30.2998C29.8678 30.2998 28.7794 29.908 27.9957 29.1243C27.212 28.297 26.8201 27.2521 26.8201 25.9895ZM26.646 22.5935H23.9466V30.1256H22.7275V22.5935H20.0281V21.6357H26.6024V22.5935H26.646ZM12.1477 25.9024C12.1477 26.9473 12.4525 27.7746 13.0185 28.3841C13.5845 28.9937 14.3246 29.2984 15.2825 29.2984C16.2838 29.2984 17.0675 28.9937 17.6335 28.3841C18.1995 27.7746 18.5043 26.9473 18.5043 25.8589C18.5043 24.7704 18.2431 23.8997 17.6771 23.2901C17.1111 22.6806 16.3709 22.3758 15.4131 22.3758C14.4552 22.3758 13.6715 22.6806 13.1055 23.3337C12.4525 24.0738 12.1477 24.901 12.1477 25.9024ZM10.8851 25.9895C10.8851 24.5963 11.2769 23.5078 12.1042 22.7241C12.9314 21.8969 14.0198 21.5051 15.4131 21.5051C16.7192 21.5051 17.7641 21.8969 18.5478 22.6806C19.3315 23.4643 19.7234 24.5092 19.7234 25.7718C19.7234 27.165 19.3315 28.2535 18.5043 29.0807C17.6771 29.908 16.6322 30.2998 15.2389 30.2998C13.9328 30.2998 12.8443 29.908 12.0606 29.1243C11.3205 28.297 10.8851 27.2521 10.8851 25.9895ZM8.70817 30.1692V24.5092C8.70817 24.0303 8.7517 23.4643 8.79524 22.8112H8.7517C8.66463 23.203 8.53401 23.5078 8.49047 23.682L5.39925 30.1692H4.74617L1.69849 23.769C1.61141 23.6384 1.52433 23.3337 1.43726 22.8547H1.35018C1.39372 23.2466 1.39372 23.8126 1.39372 24.5963V30.2127H0.261719V21.6357H1.87264L4.61556 27.4698C4.83325 27.9052 4.96386 28.2535 5.05094 28.5147H5.09448C5.31217 27.9923 5.44279 27.644 5.52986 27.4263L8.31632 21.5921H9.8837V30.1256H8.70817V30.1692ZM44.6709 28.5147C44.9321 28.7324 45.3239 28.9066 45.8029 29.0807C46.2818 29.2113 46.7172 29.2984 47.109 29.2984C48.3716 29.2984 49.0247 28.863 49.0247 28.0358C49.0247 27.8181 48.9376 27.6004 48.807 27.4263C48.6764 27.2521 48.5022 27.078 48.241 26.9473C48.0233 26.8167 47.5444 26.599 46.8913 26.2943C45.977 25.8589 45.3675 25.5106 45.1063 25.1187C44.8015 24.7704 44.6709 24.335 44.6709 23.8997C44.6709 23.203 44.9756 22.6806 45.5852 22.2452C46.1947 21.8534 46.9784 21.6357 47.8927 21.6357C48.807 21.6357 49.4601 21.7227 49.8955 21.9404V23.116C49.3295 22.7677 48.6764 22.5935 47.8056 22.5935C47.2396 22.5935 46.8043 22.6806 46.4559 22.8983C46.1076 23.116 45.9335 23.4207 45.9335 23.769C45.9335 24.1174 46.0641 24.3786 46.2818 24.5963C46.543 24.814 47.0655 25.0752 47.8492 25.467C48.7199 25.8589 49.373 26.2507 49.7213 26.6426C50.0696 27.0344 50.2438 27.4698 50.2438 27.9487C50.2438 28.6889 49.939 29.2549 49.373 29.6467C48.807 30.0386 47.9798 30.2127 46.9784 30.2127C46.6301 30.2127 46.1947 30.1692 45.7158 30.0821C45.2369 29.995 44.8886 29.8644 44.6709 29.7338V28.5147Z" fill="#696C70"/>
<path fill-rule="evenodd" clip-rule="evenodd" d="M14.1954 6.61432C12.8892 6.61432 11.5831 6.61432 10.2769 6.61432C9.97216 6.61432 9.92862 6.61432 9.92862 6.96263V14.9737C9.92862 15.4961 9.4497 16.1492 8.70954 16.1492L6.22786 16.1928C5.53124 16.1928 4.9217 15.6703 4.9217 14.8866V14.1029C4.9217 13.9288 4.87817 13.8417 4.70401 13.8417H0.524332C0.350179 13.8417 0.306641 13.9288 0.306641 14.1029V15.1043C0.306641 16.9329 2.00464 18.9357 4.31217 18.9357H10.3205C12.7586 18.9357 14.5001 17.1506 14.5001 14.8866V7.00616C14.5437 6.7014 14.4566 6.61432 14.1954 6.61432Z" fill="#696C70"/>
<path fill-rule="evenodd" clip-rule="evenodd" d="M42.1905 6.35378C45.9784 6.35378 49.2003 8.13885 50.4193 10.6205C50.637 11.0995 50.3323 11.0995 50.071 11.0995H45.6301C45.3689 11.0995 45.2383 11.0124 45.1077 10.7947C44.4546 9.96746 43.4095 9.445 42.234 9.445C40.2312 9.445 38.6203 10.9688 38.6203 12.7975C38.6203 14.6261 40.2312 16.1499 42.234 16.1499C43.4095 16.1499 44.4546 15.6275 45.1077 14.8438C45.2818 14.6261 45.4124 14.539 45.6737 14.539C49.2438 14.539 49.418 14.539 50.1581 14.539C50.4629 14.539 50.6806 14.6261 50.5064 14.9744C49.2873 17.4996 46.0655 19.2847 42.234 19.2847C37.4012 19.2847 33.4828 16.3676 33.4828 12.7975C33.4392 9.27085 37.3577 6.35378 42.1905 6.35378Z" fill="#696C70"/>
<path fill-rule="evenodd" clip-rule="evenodd" d="M24.1636 10.8377L19.3744 18.8488C19.2873 19.023 19.2438 19.023 19.1132 19.023H14.8029C14.6287 19.023 14.5416 18.9359 14.6723 18.6747L21.6384 7.2676C21.9432 6.78868 22.1173 6.7016 22.5962 6.7016H26.2535C26.8195 6.7016 26.9066 6.74514 27.2113 7.2676L34.0468 18.5876C34.3081 19.023 34.3081 19.023 33.6985 19.023H30.0413C29.5624 19.023 29.4753 18.9359 29.3012 18.6311L28.2998 16.9767H22.1173C21.7255 16.9767 21.5949 17.0202 21.769 16.7154L23.0316 14.582C23.2058 14.2337 23.2493 14.2773 23.6847 14.2773H26.6889L24.6426 10.8377C24.5119 10.4894 24.2942 10.533 24.1636 10.8377Z" fill="#696C70"/>
</g>
</g>
<defs>
<clipPath id="clip0_176_16115">
<rect width="50.5045" height="36.6527" fill="white" transform="translate(0.261719)"/>
</clipPath>
<clipPath id="clip1_176_16115">
<rect width="50.5045" height="23.9461" fill="white" transform="translate(0.261719 6.3533)"/>
</clipPath>
</defs>
</svg>
