<svg width="74" height="37" viewBox="0 0 74 37" fill="none" xmlns="http://www.w3.org/2000/svg">
<g clip-path="url(#clip0_176_16089)">
<path d="M9.19815 12.3139V15.0397H6.06093H2.92372V14.4226V13.8054H1.8437H0.763672V14.8751C0.763672 15.7906 0.79453 15.9757 0.979677 16.2123L1.1854 16.4798H6.06093H10.9365L11.1422 16.2123C11.3479 15.9449 11.3582 15.8215 11.3582 12.7665V9.58817H10.2782H9.19815V12.3139Z" fill="#696C70"/>
<path d="M13.3131 9.79389C13.1177 9.98932 13.1074 10.1333 13.1074 13.0134C13.1074 15.5746 13.128 16.058 13.272 16.2535L13.4263 16.4798H18.5178H23.5991V15.7597V15.0397H19.4333H15.2675V14.4226V13.8054L19.1556 13.7848L23.0334 13.754V13.034V12.3139L19.1556 12.2831L15.2675 12.2625V11.6454V11.0282H19.4333H23.5991V10.3082V9.58817H18.559C13.6526 9.58817 13.5086 9.59845 13.3131 9.79389Z" fill="#696C70"/>
<path d="M25.2441 10.3082V11.0282H27.4042H29.5642V13.754V16.4798H30.6443H31.7243V13.754V11.0282H33.8843H36.0444V10.3082V9.58817H30.6443H25.2441V10.3082Z" fill="#696C70"/>
<path d="M37.9987 9.79389C37.8033 9.98932 37.793 10.1333 37.793 13.0134C37.793 15.5746 37.8135 16.058 37.9575 16.2535L38.1118 16.4798H43.1931H48.2743L48.4286 16.2535C48.5726 16.058 48.5932 15.5746 48.5932 13.0134C48.5932 10.1333 48.5829 9.98932 48.3875 9.79389C48.1921 9.59845 48.0481 9.58817 43.1931 9.58817C38.3381 9.58817 38.1941 9.59845 37.9987 9.79389ZM46.4332 13.034V15.0397H43.1931H39.953V13.034V11.0282H43.1931H46.4332V13.034Z" fill="#696C70"/>
<path d="M50.3418 12.7665C50.3418 15.8215 50.3521 15.9449 50.5578 16.2123L50.7635 16.4798H55.5979C60.2883 16.4798 60.4323 16.4695 60.6277 16.274C60.8232 16.0786 60.8335 15.9346 60.8335 12.8282V9.58817H59.7534H58.6734V12.3139V15.0397H55.5876H52.5018V12.3139V9.58817H51.4218H50.3418V12.7665Z" fill="#696C70"/>
<path d="M62.584 13.034V16.4798H63.664H64.744L64.7646 14.5769L64.7955 12.6842L67.5624 14.5769L70.3293 16.4798H71.8208C72.9522 16.4798 73.2917 16.4489 73.2608 16.346C73.2299 16.2843 72.4071 15.6672 71.4093 14.9883L69.6093 13.754L71.2448 13.7025C72.7156 13.6614 72.9008 13.6305 73.0345 13.4557C73.1477 13.3014 73.1785 12.8694 73.1785 11.6248C73.1785 10.1333 73.1579 9.97903 72.9728 9.79389C72.7774 9.59845 72.6334 9.58817 67.6755 9.58817H62.584V13.034ZM71.0699 11.6454V12.2111L67.9121 12.2419L64.744 12.2625V11.6454V11.0282L67.9121 11.0488L71.0699 11.0796V11.6454Z" fill="#696C70"/>
<path d="M9.60938 24.956V26.9721H11.1111C12.4792 26.9721 12.6437 26.9515 12.9214 26.7561C13.3637 26.4372 13.518 25.9846 13.518 24.9972C13.518 24.0406 13.3535 23.5777 12.87 23.228C12.6129 23.0429 12.3969 23.012 11.0906 22.9811L9.60938 22.94V24.956ZM12.3454 23.9995C12.4997 24.1743 12.5409 24.3697 12.5409 25.0178C12.5409 26.1286 12.4277 26.2521 11.3374 26.2521H10.5351V25.0178V23.7834H11.3374C12.0369 23.7834 12.1809 23.8143 12.3454 23.9995Z" fill="#696C70"/>
<path d="M16.8496 23.1036C16.8188 23.1859 16.8085 23.3813 16.8291 23.5459C16.8599 23.8133 16.9011 23.8339 17.2714 23.8339H17.6828V23.4225C17.6828 23.0213 17.6725 23.011 17.2919 22.9802C17.0245 22.9596 16.8908 22.9905 16.8496 23.1036Z" fill="#696C70"/>
<path d="M27.3008 23.0737C27.3008 23.1354 27.7636 23.7012 28.3294 24.3183L29.358 25.4498V26.2109V26.9721H29.8723H30.3866V26.2212V25.4806L31.4152 24.3492C31.9809 23.7217 32.4438 23.156 32.4438 23.084C32.4438 23.0017 32.2792 22.9606 31.9603 22.9606C31.4769 22.9606 31.446 22.9811 30.6643 23.804C30.1603 24.3286 29.8311 24.596 29.7797 24.524C29.7386 24.4623 29.3991 24.0817 29.0082 23.6806C28.3294 22.9811 28.2882 22.9606 27.8048 22.9606C27.5065 22.9606 27.3008 23.0017 27.3008 23.0737Z" fill="#696C70"/>
<path d="M44.5801 24.9663V26.9721H45.0429H45.5058V26.2006V25.4395L46.5653 25.4086L47.6144 25.3778V25.0178V24.6578L46.5653 24.6269L45.5058 24.596V24.1949V23.7834H46.5858H47.6659V23.372V22.9606H46.123H44.5801V24.9663Z" fill="#696C70"/>
<path d="M52.194 23.732C52.194 24.0509 52.1631 24.092 51.9368 24.092C51.7105 24.092 51.6797 24.1332 51.6797 24.452C51.6797 24.7709 51.7105 24.812 51.9368 24.812C52.1837 24.812 52.194 24.8326 52.194 25.5732C52.194 26.2521 52.2248 26.3755 52.4614 26.6532C52.7186 26.9515 52.7597 26.9721 53.49 26.9721H54.2512V26.6635C54.2512 26.3652 54.2306 26.3549 53.7986 26.3549C53.2123 26.3549 53.0169 26.1081 53.0169 25.3572V24.812H53.6854H54.354V24.452V24.092H53.6854H53.0169V23.732C53.0169 23.3823 53.0066 23.372 52.6054 23.372C52.2043 23.372 52.194 23.3823 52.194 23.732Z" fill="#696C70"/>
<path d="M14.5983 24.164C14.4851 24.1949 14.2897 24.308 14.1663 24.4315C13.9503 24.6269 13.9297 24.7298 13.9297 25.8098V26.9721H14.3411H14.7526V25.9949C14.7526 24.8532 14.7937 24.812 15.7709 24.812H16.3983V24.452V24.092L15.6063 24.1023C15.164 24.1126 14.7114 24.1332 14.5983 24.164Z" fill="#696C70"/>
<path d="M16.8105 25.5218V26.9721H17.2734H17.7466L17.7157 25.5526L17.6849 24.1435L17.2528 24.1126L16.8105 24.0817V25.5218Z" fill="#696C70"/>
<path d="M18.1063 24.174C18.0445 24.2769 19.0423 26.5501 19.2583 26.7866C19.464 27.0335 20.2252 27.0335 20.4206 26.8072C20.6263 26.5603 21.6343 24.2563 21.5726 24.1637C21.5212 24.0711 20.904 24.0711 20.7703 24.174C20.7086 24.2152 20.472 24.6677 20.256 25.182L19.8446 26.1181L19.4537 25.2437C19.248 24.7603 19.0114 24.2974 18.9497 24.2254C18.8366 24.0814 18.1885 24.0403 18.1063 24.174Z" fill="#696C70"/>
<path d="M22.4976 24.2875C22.3227 24.4006 22.1479 24.5755 22.1273 24.6783C21.8804 25.5526 21.9421 26.2109 22.333 26.6635L22.5902 26.9721H23.8656H25.1411V26.6635V26.3549H24.2051C23.3102 26.3549 22.8782 26.2521 22.8782 26.0464C22.8782 25.9846 23.341 25.9435 23.9891 25.9435C24.7194 25.9435 25.1411 25.9024 25.2234 25.8201C25.3982 25.6452 25.3777 24.9663 25.1925 24.6166C24.9971 24.236 24.5754 24.092 23.6085 24.092C23.0222 24.092 22.7445 24.1435 22.4976 24.2875ZM24.2565 24.8738C24.3491 24.9046 24.4211 24.9972 24.4211 25.0795C24.4211 25.1926 24.2359 25.2235 23.6496 25.2235C22.8782 25.2235 22.765 25.1721 23.0016 24.9355C23.125 24.812 23.9788 24.7709 24.2565 24.8738Z" fill="#696C70"/>
<path d="M32.9995 24.2354C32.5674 24.4308 32.4132 24.8525 32.4646 25.7269C32.5263 26.7966 32.8966 27.0743 34.2441 27.064C35.5709 27.0537 35.9824 26.6526 35.9207 25.3977C35.8898 24.8011 35.8384 24.6674 35.6018 24.4205C35.3344 24.1634 35.2521 24.1428 34.3161 24.112C33.6372 24.1017 33.2155 24.1325 32.9995 24.2354ZM34.9126 24.9657C34.9744 25.048 35.0361 25.3257 35.0361 25.6034C35.0361 26.2 34.8612 26.3543 34.1721 26.3543C33.4829 26.3543 33.2257 26.0869 33.2977 25.4594C33.3286 25.2023 33.4109 24.9554 33.4829 24.904C33.7298 24.7497 34.7686 24.7908 34.9126 24.9657Z" fill="#696C70"/>
<path d="M36.3535 25.2329C36.3535 26.3438 36.3638 26.3746 36.6415 26.6627C36.981 27.0021 37.5775 27.1255 38.3798 27.0227C39.357 26.8992 39.5936 26.4466 39.5216 24.8626L39.4907 24.1426H39.0793H38.6679L38.6164 25.1403C38.5856 25.6855 38.5341 26.1586 38.493 26.1998C38.4621 26.2409 38.2461 26.2924 38.0198 26.3232C37.6907 26.3644 37.5673 26.3335 37.3924 26.1586C37.2072 25.9735 37.1764 25.8192 37.1764 25.0169V24.0912H36.765H36.3535V25.2329Z" fill="#696C70"/>
<path d="M40.4893 24.2052C40.0059 24.3492 39.8516 24.7709 39.8516 25.9949V26.9721H40.3144H40.7773V26.0155C40.7773 25.4086 40.8184 25.0178 40.9007 24.9355C40.9727 24.8635 41.3122 24.812 41.7236 24.812H42.423V24.452V24.092L41.631 24.1023C41.1887 24.1023 40.6744 24.1537 40.4893 24.2052Z" fill="#696C70"/>
<path d="M48.0781 25.0892C48.0781 26.3544 48.2427 26.7555 48.8496 26.951C49.3639 27.1258 50.4542 27.0538 50.8039 26.8275C51.1845 26.5807 51.2668 26.2721 51.2668 25.1098V24.0915H50.8656H50.4645L50.4233 25.0789C50.4027 25.9224 50.3616 26.0869 50.1867 26.2207C49.9605 26.3852 49.2713 26.3544 49.0759 26.1589C49.0244 26.1075 48.9524 25.6138 48.9216 25.0789L48.8701 24.0915H48.4793H48.0781V25.0892Z" fill="#696C70"/>
<path d="M54.7637 25.1098C54.7637 26.2721 54.846 26.5807 55.2265 26.8275C55.5763 27.0538 56.6666 27.1258 57.1809 26.951C57.7877 26.7555 57.9523 26.3544 57.9523 25.0892V24.0812L57.5203 24.112L57.078 24.1429L57.0266 25.1715L56.9751 26.1898L56.646 26.2824C56.1934 26.4161 55.8026 26.2927 55.6894 25.9841C55.6277 25.8401 55.5865 25.3566 55.5865 24.9041V24.0915H55.1751H54.7637V25.1098Z" fill="#696C70"/>
<path d="M59.0338 24.164C58.9207 24.1949 58.7252 24.308 58.6018 24.4315C58.3858 24.6269 58.3652 24.7298 58.3652 25.8098V26.9721H58.7767H59.1881V26.0155C59.1881 25.4086 59.2293 25.0178 59.3115 24.9355C59.3835 24.8635 59.723 24.812 60.1344 24.812H60.8339V24.452V24.092L60.0418 24.1023C59.5995 24.1126 59.147 24.1332 59.0338 24.164Z" fill="#696C70"/>
<path d="M61.8908 24.1949C61.7571 24.2463 61.5616 24.4417 61.4485 24.6269C61.0679 25.2543 61.2428 26.5915 61.7365 26.8589C61.8599 26.9207 62.4977 26.9721 63.1868 26.9721H64.4314V26.6635V26.3549H63.4954C62.6005 26.3549 62.1685 26.2521 62.1685 26.0464C62.1685 25.9846 62.6417 25.9435 63.2897 25.9435C64.596 25.9435 64.6886 25.8921 64.6063 25.1618C64.5754 24.8326 64.4726 24.596 64.2874 24.4109C64.0406 24.164 63.9377 24.1435 63.0634 24.1229C62.5491 24.1023 62.0142 24.1435 61.8908 24.1949ZM63.5468 24.8738C63.6394 24.9046 63.7114 24.9972 63.7114 25.0795C63.7114 25.1926 63.5263 25.2235 62.94 25.2235C62.3434 25.2235 62.1685 25.1926 62.1685 25.0795C62.1685 24.9972 62.2302 24.9046 62.3022 24.884C62.4874 24.8018 63.3617 24.8018 63.5468 24.8738Z" fill="#696C70"/>
<path d="M1.07227 25.4283V25.7369H4.62092H8.16957V25.4283V25.1198H4.62092H1.07227V25.4283Z" fill="#696C70"/>
<path d="M65.873 25.4283V25.7369H69.4217H72.9703V25.4283V25.1198H69.4217H65.873V25.4283Z" fill="#696C70"/>
</g>
<defs>
<clipPath id="clip0_176_16089">
<rect width="72.498" height="36.6527" fill="white" transform="translate(0.763672)"/>
</clipPath>
</defs>
</svg>
