<svg width="69" height="69" viewBox="0 0 69 69" fill="none" xmlns="http://www.w3.org/2000/svg">
  <rect width="68.995" height="68.995" rx="11" fill="white"/>
  <g clip-path="url(#clip0_12403_14437)">
    <path d="M11.6468 8.91091C10.5145 9.08194 9.68885 9.6422 9.25833 10.5268C8.875 11.3112 8.875 11.2994 8.875 15.0384C8.875 18.0991 8.88679 18.4648 8.98115 18.8127C9.31141 20.0335 10.0427 20.7648 11.2635 21.095C11.6114 21.1894 11.9771 21.2012 15.0378 21.2012C18.0986 21.2012 18.4642 21.1894 18.8122 21.095C20.0329 20.7648 20.7642 20.0335 21.0945 18.8127C21.1888 18.4648 21.2006 18.0991 21.2006 15.0384C21.2006 11.9776 21.1888 11.6119 21.0945 11.264C20.7701 10.055 20.0506 9.32963 18.8417 8.98168C18.5291 8.89322 18.1104 8.88143 15.2442 8.86963C13.4632 8.86374 11.8414 8.88143 11.6468 8.91091ZM17.6386 10.6978C18.6235 10.9101 19.2132 11.5235 19.396 12.526C19.4845 12.9978 19.4845 17.0789 19.396 17.5507C19.2132 18.5532 18.6235 19.1666 17.6386 19.3789C17.1491 19.4791 13.074 19.4968 12.5255 19.3966C11.4994 19.2078 10.8683 18.5768 10.6796 17.5448C10.5912 17.0848 10.5912 12.9919 10.6796 12.526C10.7681 12.0366 11.0394 11.494 11.3283 11.2345C11.6055 10.9868 12.0714 10.7627 12.4842 10.6801C12.6376 10.6507 13.7758 10.6271 15.0083 10.6212C16.7304 10.6212 17.3378 10.6389 17.6386 10.6978Z" fill="black"/>
    <path d="M13.3097 12.4788C12.9264 12.5968 12.5961 12.9388 12.4781 13.3339C12.4015 13.5757 12.3838 13.9473 12.3838 15.0383C12.3838 16.666 12.431 16.9137 12.7966 17.2793C13.1623 17.645 13.4099 17.6921 15.0376 17.6921C16.6771 17.6921 16.9366 17.645 17.2905 17.2734C17.6443 16.9019 17.6915 16.6483 17.6915 15.0383C17.6915 13.4283 17.6443 13.1747 17.2905 12.8032C16.9366 12.4316 16.6771 12.3844 15.014 12.3903C13.9407 12.3903 13.522 12.4139 13.3097 12.4788Z" fill="black"/>
    <path d="M26.9507 8.95218C26.5497 9.15269 26.5379 9.21757 26.5379 11.4999C26.5379 14.2894 26.4435 14.1537 28.3071 14.1537C29.2861 14.1537 29.4866 14.136 29.6635 14.0476C30.212 13.7763 30.212 12.7619 29.6635 12.4906C29.5102 12.4081 29.3097 12.3845 28.8851 12.3845H28.3071V10.9219C28.3071 9.65398 28.2953 9.43577 28.201 9.25885C28.0771 9.00526 27.7764 8.84603 27.4225 8.84603C27.2751 8.84603 27.0628 8.89321 26.9507 8.95218Z" fill="black"/>
    <path d="M30.489 8.95221C30.1175 9.13503 30.0762 9.31196 30.0762 10.6153C30.0762 12.3845 30.0762 12.3845 31.8454 12.3845C33.1487 12.3845 33.3257 12.3432 33.5085 11.9717C33.7326 11.5235 33.5851 10.9102 33.2018 10.7214C33.0485 10.6389 32.848 10.6153 32.4234 10.6153H31.8454V10.0373C31.8454 9.35914 31.751 9.10555 31.4326 8.95221C31.3205 8.89324 31.1082 8.84606 30.9608 8.84606C30.8134 8.84606 30.601 8.89324 30.489 8.95221Z" fill="black"/>
    <path d="M34.0281 8.95213C33.7745 9.07598 33.6152 9.37675 33.6152 9.73059C33.6152 10.0844 33.7745 10.3852 34.0281 10.5091C34.4763 10.7332 35.0896 10.5857 35.2783 10.2024C35.5024 9.75418 35.355 9.14085 34.9716 8.95213C34.8596 8.89316 34.6473 8.84598 34.4998 8.84598C34.3524 8.84598 34.1401 8.89316 34.0281 8.95213Z" fill="black"/>
    <path d="M42.8738 8.95217C42.5022 9.13499 42.4609 9.31191 42.4609 10.6152C42.4609 11.5942 42.4786 11.7947 42.5671 11.9717C42.7204 12.2901 42.974 12.3845 43.6581 12.3845H44.2302V14.1537V15.9229H43.6581C42.974 15.9229 42.7204 16.0173 42.5671 16.3358C42.4786 16.5127 42.4609 16.7132 42.4609 17.6922C42.4609 18.9955 42.5022 19.1724 42.8738 19.3552C43.322 19.5793 43.9353 19.4319 44.124 19.0486C44.2066 18.8952 44.2302 18.6947 44.2302 18.2642V17.6922H44.8081C45.4863 17.6922 45.7399 17.5978 45.8932 17.2793C45.9935 17.0906 45.9994 16.7722 45.9994 13.2691C45.9994 9.76602 45.9935 9.44755 45.8932 9.25884C45.7104 8.8873 45.5335 8.84602 44.2302 8.84602C43.2512 8.84602 43.0507 8.86371 42.8738 8.95217Z" fill="black"/>
    <path d="M50.5696 8.91091C49.4373 9.08194 48.6117 9.6422 48.1812 10.5268C47.7979 11.3112 47.7979 11.2994 47.7979 15.0384C47.7979 18.0991 47.8096 18.4648 47.904 18.8127C48.2343 20.0335 48.9655 20.7648 50.1863 21.095C50.5343 21.1894 50.8999 21.2012 53.9607 21.2012C57.0214 21.2012 57.3871 21.1894 57.735 21.095C58.9558 20.7648 59.6871 20.0335 60.0173 18.8127C60.1117 18.4648 60.1235 18.0991 60.1235 15.0384C60.1235 11.9776 60.1117 11.6119 60.0173 11.264C59.693 10.055 58.9735 9.32963 57.7645 8.98168C57.452 8.89322 57.0332 8.88143 54.1671 8.86963C52.3861 8.86374 50.7643 8.88143 50.5696 8.91091ZM56.5614 10.6978C57.5463 10.9101 58.1361 11.5235 58.3189 12.526C58.4073 12.9978 58.4073 17.0789 58.3189 17.5507C58.1361 18.5532 57.5463 19.1666 56.5614 19.3789C56.072 19.4791 51.9968 19.4968 51.4484 19.3966C50.4222 19.2078 49.7912 18.5768 49.6025 17.5448C49.514 17.0848 49.514 12.9919 49.6025 12.526C49.6909 12.0366 49.9622 11.494 50.2512 11.2345C50.5284 10.9868 50.9943 10.7627 51.4071 10.6801C51.5604 10.6507 52.6986 10.6271 53.9312 10.6212C55.6532 10.6212 56.2607 10.6389 56.5614 10.6978Z" fill="black"/>
    <path d="M52.2335 12.4788C51.8502 12.5968 51.5199 12.9388 51.402 13.3339C51.3253 13.5757 51.3076 13.9473 51.3076 15.0383C51.3076 16.666 51.3548 16.9137 51.7204 17.2793C52.0861 17.645 52.3338 17.6921 53.9615 17.6921C55.601 17.6921 55.8604 17.645 56.2143 17.2734C56.5681 16.9019 56.6153 16.6483 56.6153 15.0383C56.6153 13.4283 56.5681 13.1747 56.2143 12.8032C55.8604 12.4316 55.601 12.3844 53.9379 12.3903C52.8645 12.3903 52.4458 12.4139 52.2335 12.4788Z" fill="black"/>
    <path d="M23.4128 10.7214C23.1592 10.8453 23 11.1461 23 11.4999C23 12.0484 23.3362 12.3845 23.8846 12.3845C24.4331 12.3845 24.7692 12.0484 24.7692 11.4999C24.7692 10.9514 24.4331 10.6153 23.8846 10.6153C23.7372 10.6153 23.5249 10.6625 23.4128 10.7214Z" fill="black"/>
    <path d="M39.3357 10.7214C39.0821 10.8453 38.9229 11.146 38.9229 11.4999C38.9229 11.8537 39.0821 12.1545 39.3357 12.2783C39.7839 12.5024 40.3972 12.355 40.5859 11.9717C40.81 11.5235 40.6626 10.9101 40.2793 10.7214C40.1672 10.6624 39.9549 10.6153 39.8075 10.6153C39.66 10.6153 39.4477 10.6624 39.3357 10.7214Z" fill="black"/>
    <path d="M35.7966 12.4907C35.543 12.6146 35.3838 12.9153 35.3838 13.2692C35.3838 13.623 35.543 13.9238 35.7966 14.0476C36.2448 14.2717 36.8581 14.1243 37.0469 13.741C37.271 13.2928 37.1235 12.6794 36.7402 12.4907C36.6281 12.4317 36.4158 12.3846 36.2684 12.3846C36.121 12.3846 35.9087 12.4317 35.7966 12.4907Z" fill="black"/>
    <path d="M41.1042 12.4907C40.8506 12.6146 40.6914 12.9153 40.6914 13.2692C40.6914 13.623 40.8506 13.9238 41.1042 14.0476C41.5524 14.2717 42.1658 14.1243 42.3545 13.741C42.5786 13.2928 42.4311 12.6794 42.0478 12.4907C41.9358 12.4317 41.7235 12.3846 41.576 12.3846C41.4286 12.3846 41.2163 12.4317 41.1042 12.4907Z" fill="black"/>
    <path d="M30.4894 14.2598C30.171 14.4131 30.0766 14.6667 30.0766 15.3449V15.9229H29.5045C28.8204 15.9229 28.5668 16.0172 28.4135 16.3357C28.1894 16.7839 28.3368 17.3972 28.7202 17.5859C28.8735 17.6685 29.074 17.6921 29.5045 17.6921H30.0766V19.4613V21.2306H29.192H28.3074V19.768C28.3074 17.6449 28.3486 17.6921 26.5381 17.6921C25.5592 17.6921 25.3586 17.7098 25.1817 17.7983C24.6333 18.0695 24.6333 19.0839 25.1817 19.3552C25.3351 19.4377 25.5356 19.4613 25.9661 19.4613H26.5381V20.3459V21.2306H25.9661C25.282 21.2306 25.0284 21.3249 24.8751 21.6434C24.651 22.0916 24.7984 22.7049 25.1817 22.8936C25.3351 22.9762 25.5356 22.9998 25.9661 22.9998H26.5381V23.8844V24.769H25.9661C24.9753 24.769 24.7689 24.9754 24.7689 25.9603V26.5383H23.8843H22.9997V25.9603C22.9997 25.2821 22.9053 25.0285 22.5868 24.8752C22.1386 24.6511 21.5253 24.7985 21.3366 25.1818C21.254 25.3352 21.2304 25.5357 21.2304 25.9603V26.5383H20.6584C19.9743 26.5383 19.7207 26.6326 19.5674 26.9511C19.3433 27.3993 19.4907 28.0126 19.874 28.2013C20.051 28.2957 20.2692 28.3075 21.543 28.3075H22.9997V29.1921V30.0767H21.543C19.8917 30.0767 19.7561 30.1062 19.5674 30.4895C19.3433 30.9377 19.4907 31.5511 19.874 31.7398C20.0568 31.8342 20.2986 31.8459 22.1151 31.8459C23.9315 31.8459 24.1733 31.8342 24.3561 31.7398C24.6745 31.5865 24.7689 31.3329 24.7689 30.6488V30.0767H26.2315C27.8768 30.0767 28.0125 30.0472 28.2012 29.6639C28.4253 29.2157 28.2779 28.6024 27.8945 28.4136C27.7412 28.3311 27.5407 28.3075 27.1161 28.3075H26.5381V27.4229V26.5383H27.1161C28.101 26.5383 28.3074 26.3318 28.3074 25.3411V24.769H28.8853C29.8702 24.769 30.0766 24.5626 30.0766 23.5718V22.9998H30.6545C31.3327 22.9998 31.5863 22.9054 31.7397 22.587C31.834 22.3983 31.8458 22.1506 31.8458 20.0334V17.6921H32.4238C33.102 17.6921 33.3556 17.5977 33.5089 17.2793C33.5974 17.1024 33.6151 16.9018 33.6151 15.9229C33.6151 14.6195 33.5738 14.4426 33.2022 14.2598C33.0253 14.1713 32.8248 14.1536 31.8458 14.1536C30.8668 14.1536 30.6663 14.1713 30.4894 14.2598Z" fill="black"/>
    <path d="M37.5666 14.2599C37.1833 14.4486 37.1538 14.5843 37.1538 16.2297V17.6922H35.6971C33.5681 17.6922 33.6153 17.6509 33.6153 19.4615C33.6153 20.4404 33.633 20.6409 33.7215 20.8179C33.9928 21.3663 35.0071 21.3663 35.2784 20.8179C35.361 20.6645 35.3846 20.464 35.3846 20.0335V19.4615H36.2692H37.1538V20.0335C37.1538 20.7176 37.2481 20.9712 37.5666 21.1245C38.0148 21.3486 38.6281 21.2012 38.8169 20.8179C38.8994 20.6645 38.923 20.464 38.923 20.0335V19.4615H39.501C39.9256 19.4615 40.1261 19.4379 40.2794 19.3553C40.8279 19.084 40.8279 18.0697 40.2794 17.7984C40.1261 17.7158 39.9256 17.6922 39.501 17.6922H38.923V16.2297C38.923 14.9617 38.9112 14.7435 38.8169 14.5666C38.693 14.313 38.3922 14.1538 38.0384 14.1538C37.891 14.1538 37.6787 14.2009 37.5666 14.2599Z" fill="black"/>
    <path d="M23.4128 16.0291C23.1592 16.1529 23 16.4537 23 16.8075C23 17.356 23.3362 17.6921 23.8846 17.6921C24.4331 17.6921 24.7692 17.356 24.7692 16.8075C24.7692 16.2591 24.4331 15.9229 23.8846 15.9229C23.7372 15.9229 23.5249 15.9701 23.4128 16.0291Z" fill="black"/>
    <path d="M23.4128 19.5676C23.1592 19.6915 23 19.9923 23 20.3461C23 20.8946 23.3362 21.2307 23.8846 21.2307C24.4331 21.2307 24.7692 20.8946 24.7692 20.3461C24.7692 19.7976 24.4331 19.4615 23.8846 19.4615C23.7372 19.4615 23.5249 19.5087 23.4128 19.5676Z" fill="black"/>
    <path d="M41.1046 19.5677C40.7862 19.721 40.6918 19.9746 40.6918 20.6528V21.2307H40.1198C39.6893 21.2307 39.4887 21.2543 39.3354 21.3369C39.017 21.4902 38.9226 21.7438 38.9226 22.422V23H38.3505C37.6664 23 37.4129 23.0943 37.2595 23.4128C37.177 23.5661 37.1534 23.7666 37.1534 24.1913V24.7692H36.5813C35.8972 24.7692 35.6436 24.8636 35.4903 25.182C35.4077 25.3354 35.3841 25.5359 35.3841 25.9605V26.5384H34.8121C34.3816 26.5384 34.1811 26.562 34.0277 26.6446C33.7093 26.7979 33.6149 27.0515 33.6149 27.7297V28.3077H33.0429C32.3587 28.3077 32.1052 28.402 31.9518 28.7205C31.7277 29.1687 31.8752 29.782 32.2585 29.9707C32.4118 30.0533 32.6123 30.0769 33.0429 30.0769H33.6149V31.5336C33.6149 33.6625 33.5736 33.6154 35.3841 33.6154C37.1534 33.6154 37.1534 33.6154 37.1534 31.8461C37.1534 30.8672 37.1357 30.6666 37.0472 30.4897C36.8939 30.1713 36.6403 30.0769 35.9621 30.0769H35.3841V29.1923V28.3077H36.2687H37.1534V28.8797C37.1534 29.8705 37.3598 30.0769 38.3505 30.0769H38.9226V30.6489C38.9226 31.333 39.017 31.5866 39.3354 31.74C39.5241 31.8402 39.8544 31.8461 43.6582 31.8461H47.7687V32.7307V33.6154H47.1967C46.2059 33.6154 45.9995 33.8218 45.9995 34.8066V35.3846H42.7736C39.8131 35.3846 39.5241 35.3964 39.3354 35.4907C39.017 35.6441 38.9226 35.8977 38.9226 36.5759V37.1538H38.3505C37.3598 37.1538 37.1534 37.3602 37.1534 38.3451V38.923H36.5813C35.5905 38.923 35.3841 39.1295 35.3841 40.1143V40.6923H34.8121C33.8213 40.6923 33.6149 40.8987 33.6149 41.8836V42.4615H32.1582C30.507 42.4615 30.3713 42.491 30.1826 42.8743C29.9585 43.3225 30.1059 43.9359 30.4893 44.1246C30.6662 44.2189 30.8844 44.2307 32.1582 44.2307H33.6149V45.6874C33.6149 47.8164 33.5736 47.7692 35.3841 47.7692C36.3631 47.7692 36.5636 47.7515 36.7405 47.663C37.059 47.5097 37.1534 47.2561 37.1534 46.572V46H39.5005C41.6118 46 41.8595 45.9882 42.0482 45.8938C42.5967 45.6225 42.5967 44.6082 42.0482 44.3369C41.8949 44.2543 41.6944 44.2307 41.2698 44.2307H40.6918V42.4615V40.6923H41.2698C41.948 40.6923 42.2016 40.5979 42.3549 40.2795C42.4493 40.1025 42.4611 39.8843 42.4611 38.6105V37.1538H44.2303H45.9995V37.7259C45.9995 38.7166 46.2059 38.923 47.1967 38.923H47.7687V40.3797C47.7687 42.5087 47.7275 42.4615 49.538 42.4615C50.8413 42.4615 51.0182 42.4202 51.2011 42.0487C51.4252 41.6005 51.2777 40.9872 50.8944 40.7984C50.7411 40.7159 50.5405 40.6923 50.1159 40.6923H49.538V39.8077V38.923H50.1159C50.5405 38.923 50.7411 38.8995 50.8944 38.8169C51.4429 38.5456 51.4429 37.5313 50.8944 37.26C50.7175 37.1656 50.4993 37.1538 49.2313 37.1538H47.7687V36.2692V35.3846H49.2313C51.3544 35.3846 51.3072 35.4259 51.3072 33.6154C51.3072 32.6364 51.2895 32.4359 51.2011 32.2589C51.0477 31.9405 50.7941 31.8461 50.1159 31.8461H49.538V28.6143C49.538 25.6597 49.5262 25.3707 49.4318 25.182C49.1605 24.6336 48.1462 24.6336 47.8749 25.182C47.7805 25.3707 47.7687 25.6184 47.7687 27.7297V30.0769H46.8841H45.9995V29.4989C45.9995 29.0743 45.9759 28.8738 45.8934 28.7205C45.6221 28.172 44.6077 28.172 44.3364 28.7205C44.2539 28.8738 44.2303 29.0743 44.2303 29.4989V30.0769H43.3457H42.4611V27.423V24.7692H43.039C43.7172 24.7692 43.9708 24.6748 44.1241 24.3564C44.2126 24.1795 44.2303 23.9789 44.2303 23C44.2303 22.021 44.2126 21.8205 44.1241 21.6436C43.9708 21.3251 43.7172 21.2307 43.039 21.2307H42.4611V20.6528C42.4611 19.9746 42.3667 19.721 42.0482 19.5677C41.9362 19.5087 41.7239 19.4615 41.5764 19.4615C41.429 19.4615 41.2167 19.5087 41.1046 19.5677ZM40.6918 27.423V28.3077H39.8072H38.9226V27.423V26.5384H39.8072H40.6918V27.423ZM37.1534 43.3461V44.2307H36.2687H35.3841V43.3461V42.4615H36.2687H37.1534V43.3461Z" fill="black"/>
    <path d="M44.6433 19.5676C44.3897 19.6915 44.2305 19.9922 44.2305 20.3461C44.2305 20.6999 44.3897 21.0007 44.6433 21.1245C45.0915 21.3486 45.7048 21.2012 45.8935 20.8179C46.1176 20.3697 45.9702 19.7563 45.5869 19.5676C45.4748 19.5086 45.2625 19.4615 45.1151 19.4615C44.9676 19.4615 44.7553 19.5086 44.6433 19.5676Z" fill="black"/>
    <path d="M35.7966 21.3369C35.543 21.4607 35.3838 21.7615 35.3838 22.1154C35.3838 22.4692 35.543 22.77 35.7966 22.8938C36.2448 23.1179 36.8581 22.9705 37.0469 22.5872C37.271 22.1389 37.1235 21.5256 36.7402 21.3369C36.6281 21.2779 36.4158 21.2307 36.2684 21.2307C36.121 21.2307 35.9087 21.2779 35.7966 21.3369Z" fill="black"/>
    <path d="M9.25852 23.106C9.00493 23.2298 8.8457 23.5306 8.8457 23.8844C8.8457 24.4329 9.18186 24.769 9.73032 24.769C10.2788 24.769 10.6149 24.4329 10.6149 23.8844C10.6149 23.336 10.2788 22.9998 9.73032 22.9998C9.58288 22.9998 9.37057 23.047 9.25852 23.106Z" fill="black"/>
    <path d="M12.7966 23.106C12.543 23.2298 12.3838 23.5306 12.3838 23.8844C12.3838 24.4329 12.7199 24.769 13.2684 24.769C13.8169 24.769 14.153 24.4329 14.153 23.8844C14.153 23.336 13.8169 22.9998 13.2684 22.9998C13.121 22.9998 12.9087 23.047 12.7966 23.106Z" fill="black"/>
    <path d="M16.3357 23.106C16.0821 23.2298 15.9229 23.5306 15.9229 23.8844C15.9229 24.4329 16.259 24.769 16.8075 24.769C17.3559 24.769 17.6921 24.4329 17.6921 23.8844C17.6921 23.336 17.3559 22.9998 16.8075 22.9998C16.66 22.9998 16.4477 23.047 16.3357 23.106Z" fill="black"/>
    <path d="M19.8738 23.106C19.6202 23.2298 19.4609 23.5306 19.4609 23.8844C19.4609 24.4329 19.7971 24.769 20.3456 24.769C20.894 24.769 21.2302 24.4329 21.2302 23.8844C21.2302 23.336 20.894 22.9998 20.3456 22.9998C20.1981 22.9998 19.9858 23.047 19.8738 23.106Z" fill="black"/>
    <path d="M51.7204 23.1059C51.4668 23.2298 51.3076 23.5306 51.3076 23.8844C51.3076 24.2382 51.4668 24.539 51.7204 24.6629C52.1686 24.887 52.782 24.7395 52.9707 24.3562C53.1948 23.908 53.0474 23.2947 52.664 23.1059C52.552 23.047 52.3397 22.9998 52.1922 22.9998C52.0448 22.9998 51.8325 23.047 51.7204 23.1059Z" fill="black"/>
    <path d="M57.0281 23.1059C56.7745 23.2298 56.6152 23.5306 56.6152 23.8844C56.6152 24.2382 56.7745 24.539 57.0281 24.6629C57.4763 24.887 58.0896 24.7395 58.2783 24.3562C58.5024 23.908 58.355 23.2947 57.9716 23.1059C57.8596 23.047 57.6473 22.9998 57.4998 22.9998C57.3524 22.9998 57.1401 23.047 57.0281 23.1059Z" fill="black"/>
    <path d="M11.028 24.8753C10.6447 25.064 10.6152 25.1997 10.6152 26.845V28.3076H10.0432C9.35905 28.3076 9.10546 28.402 8.95213 28.7204C8.72802 29.1686 8.87546 29.782 9.25879 29.9707C9.41213 30.0532 9.61264 30.0768 10.0432 30.0768H10.6152V31.5335C10.6152 33.1848 10.6447 33.3204 11.028 33.5091C11.4762 33.7332 12.0896 33.5858 12.2783 33.2025C12.3608 33.0491 12.3844 32.8486 12.3844 32.4181V31.8461H13.269H14.1537V33.3027C14.1537 34.5766 14.1655 34.7948 14.2598 34.9717C14.5311 35.5202 15.5455 35.5202 15.8167 34.9717C15.9111 34.7948 15.9229 34.5766 15.9229 33.3027V31.8461H16.5008C16.9255 31.8461 17.126 31.8225 17.2793 31.7399C17.8278 31.4686 17.8278 30.4543 17.2793 30.183C17.0906 30.0886 16.8429 30.0768 14.7316 30.0768H12.3844V27.7297C12.3844 25.6184 12.3726 25.3707 12.2783 25.182C12.1544 24.9284 11.8537 24.7691 11.4998 24.7691C11.3524 24.7691 11.1401 24.8163 11.028 24.8753Z" fill="black"/>
    <path d="M14.5661 24.8753C14.3126 24.9991 14.1533 25.2999 14.1533 25.6537C14.1533 26.2022 14.4895 26.5383 15.0379 26.5383C15.5864 26.5383 15.9226 26.2022 15.9226 25.6537C15.9226 25.1053 15.5864 24.7691 15.0379 24.7691C14.8905 24.7691 14.6782 24.8163 14.5661 24.8753Z" fill="black"/>
    <path d="M18.1042 24.8753C17.8506 24.9991 17.6914 25.2999 17.6914 25.6537C17.6914 26.2022 18.0276 26.5383 18.576 26.5383C19.1245 26.5383 19.4606 26.2022 19.4606 25.6537C19.4606 25.1053 19.1245 24.7691 18.576 24.7691C18.4286 24.7691 18.2163 24.8163 18.1042 24.8753Z" fill="black"/>
    <path d="M30.489 24.8753C30.1705 25.0286 30.0761 25.2822 30.0761 25.9604V26.5384H29.5041C28.82 26.5384 28.5664 26.6327 28.4131 26.9512C28.189 27.3994 28.3364 28.0127 28.7197 28.2015C28.8967 28.2899 29.0972 28.3076 30.0761 28.3076C31.0551 28.3076 31.2556 28.2899 31.4326 28.2015C31.751 28.0481 31.8454 27.7945 31.8454 27.1104V26.5384H32.4233C33.1015 26.5384 33.3551 26.444 33.5084 26.1256C33.7326 25.6774 33.5851 25.064 33.2018 24.8753C33.0249 24.7868 32.8243 24.7692 31.8454 24.7692C30.8664 24.7692 30.6659 24.7868 30.489 24.8753Z" fill="black"/>
    <path d="M53.489 24.8752C53.2354 24.9991 53.0762 25.2998 53.0762 25.6537C53.0762 26.0075 53.2354 26.3083 53.489 26.4322C53.9372 26.6563 54.5505 26.5088 54.7392 26.1255C54.9634 25.6773 54.8159 25.0639 54.4326 24.8752C54.3205 24.8163 54.1082 24.7691 53.9608 24.7691C53.8134 24.7691 53.601 24.8163 53.489 24.8752Z" fill="black"/>
    <path d="M58.7973 24.8753C58.4788 25.0287 58.3844 25.2823 58.3844 25.9605V26.5384H56.9278C55.2765 26.5384 55.1408 26.5679 54.9521 26.9512C54.728 27.3994 54.8755 28.0128 55.2588 28.2015C55.4121 28.2841 55.6126 28.3076 56.0432 28.3076H56.6152V29.7643C56.6152 31.0382 56.627 31.2564 56.7214 31.4333C56.8747 31.7517 57.1283 31.8461 57.8124 31.8461H58.3844V32.7307V33.6153H57.8124C57.1283 33.6153 56.8747 33.7097 56.7214 34.0282C56.627 34.211 56.6152 34.4528 56.6152 36.2692C56.6152 38.0856 56.627 38.3274 56.7214 38.5102C56.8747 38.8287 57.1283 38.923 57.8124 38.923H58.3844V39.8076V40.6923H57.8124C57.1283 40.6923 56.8747 40.7866 56.7214 41.1051C56.568 41.4117 56.568 43.5112 56.7214 43.8179C56.9926 44.3664 58.007 44.3664 58.2783 43.8179C58.3608 43.6646 58.3844 43.4641 58.3844 43.0335V42.4615H58.9624C59.6406 42.4615 59.8942 42.3671 60.0475 42.0487C60.1419 41.8659 60.1537 41.6241 60.1537 39.8076C60.1537 37.9912 60.1419 37.7494 60.0475 37.5666C59.8942 37.2482 59.6406 37.1538 58.9624 37.1538H58.3844V36.2692V35.3846H58.9624C59.6406 35.3846 59.8942 35.2902 60.0475 34.9717C60.1419 34.7889 60.1537 34.5471 60.1537 32.7307C60.1537 30.9143 60.1419 30.6725 60.0475 30.4897C59.8942 30.1712 59.6406 30.0769 58.9624 30.0769H58.3844V29.1923V28.3076H58.9624C59.6406 28.3076 59.8942 28.2133 60.0475 27.8948C60.136 27.7179 60.1537 27.5174 60.1537 26.5384C60.1537 25.5594 60.136 25.3589 60.0475 25.182C59.9237 24.9284 59.6229 24.7692 59.269 24.7692C59.1216 24.7692 58.9093 24.8164 58.7973 24.8753Z" fill="black"/>
    <path d="M18.1042 28.4138C17.8506 28.5377 17.6914 28.8384 17.6914 29.1923C17.6914 29.7408 18.0276 30.0769 18.576 30.0769C19.1245 30.0769 19.4606 29.7408 19.4606 29.1923C19.4606 28.6438 19.1245 28.3077 18.576 28.3077C18.4286 28.3077 18.2163 28.3549 18.1042 28.4138Z" fill="black"/>
    <path d="M51.7204 28.4138C51.4668 28.5376 51.3076 28.8384 51.3076 29.1923C51.3076 29.5461 51.4668 29.8469 51.7204 29.9707C52.1686 30.1948 52.782 30.0474 52.9707 29.6641C53.1948 29.2159 53.0474 28.6025 52.664 28.4138C52.552 28.3548 52.3397 28.3076 52.1922 28.3076C52.0448 28.3076 51.8325 28.3548 51.7204 28.4138Z" fill="black"/>
    <path d="M28.7199 30.1829C28.4663 30.3068 28.3071 30.6075 28.3071 30.9614C28.3071 31.1088 28.3542 31.3211 28.4132 31.4332C28.5665 31.7516 28.8201 31.846 29.5042 31.846H30.0763V33.6152V35.3844H29.1917H28.3071V33.9219C28.3071 31.7988 28.3483 31.846 26.5378 31.846C25.5589 31.846 25.3583 31.8637 25.1814 31.9521C24.633 32.2234 24.633 33.2378 25.1814 33.5091C25.3348 33.5916 25.5353 33.6152 25.9658 33.6152H26.5378V34.4998V35.3844H25.6532H24.7686V34.8065C24.7686 34.3819 24.745 34.1814 24.6624 34.028C24.3912 33.4796 23.3768 33.4796 23.1055 34.028C23.0112 34.205 22.9994 34.4232 22.9994 35.6911V37.1537H20.6581C18.0278 37.1537 17.9983 37.1596 17.7978 37.5665C17.5737 38.0147 17.7212 38.628 18.1045 38.8168C18.2932 38.9111 18.5822 38.9229 21.5427 38.9229H24.7686V39.495C24.7686 40.1791 24.863 40.4327 25.1814 40.586C25.3583 40.6744 25.5589 40.6921 26.5378 40.6921C27.8412 40.6921 28.0181 40.6509 28.2009 40.2793C28.425 39.8311 28.2776 39.2178 27.8942 39.0291C27.7409 38.9465 27.5404 38.9229 27.1158 38.9229H26.5378V38.0383V37.1537H28.3071H30.0763V37.7257C30.0763 38.1562 30.0999 38.3568 30.1824 38.5101C30.4537 39.0585 31.4681 39.0585 31.7394 38.5101C31.8337 38.3332 31.8455 38.115 31.8455 36.8411V35.3844H32.4235C32.8481 35.3844 33.0486 35.3609 33.2019 35.2783C33.7504 35.007 33.7504 33.9927 33.2019 33.7214C33.0486 33.6388 32.8481 33.6152 32.4235 33.6152H31.8455V32.1527C31.8455 30.0296 31.8868 30.0768 30.0763 30.0768C29.0973 30.0768 28.8968 30.0944 28.7199 30.1829Z" fill="black"/>
    <path d="M53.4891 30.1829C53.0586 30.3952 53.0763 30.1416 53.0763 35.3844C53.0763 39.7309 53.0822 40.0906 53.1824 40.2793C53.3652 40.6509 53.5422 40.6921 54.8455 40.6921C56.1488 40.6921 56.3258 40.6509 56.5086 40.2793C56.7327 39.8311 56.5852 39.2178 56.2019 39.0291C56.0486 38.9465 55.8481 38.9229 55.4235 38.9229H54.8455V34.8065C54.8455 31.0085 54.8396 30.6783 54.7394 30.4896C54.6155 30.236 54.3147 30.0768 53.9609 30.0768C53.8135 30.0768 53.6011 30.1239 53.4891 30.1829Z" fill="black"/>
    <path d="M18.1042 31.9522C17.7327 32.135 17.6914 32.312 17.6914 33.6153C17.6914 35.3845 17.6914 35.3845 19.4606 35.3845C20.764 35.3845 20.9409 35.3432 21.1237 34.9717C21.3478 34.5235 21.2004 33.9102 20.817 33.7214C20.6637 33.6389 20.4632 33.6153 20.0386 33.6153H19.4606V33.0373C19.4606 32.3591 19.3663 32.1055 19.0478 31.9522C18.9358 31.8932 18.7235 31.8461 18.576 31.8461C18.4286 31.8461 18.2163 31.8932 18.1042 31.9522Z" fill="black"/>
    <path d="M9.25852 33.7213C8.88699 33.9041 8.8457 34.0811 8.8457 35.3844C8.8457 36.3634 8.8634 36.5639 8.95186 36.7408C9.10519 37.0593 9.35878 37.1536 10.0429 37.1536H10.6149V37.7257C10.6149 38.1562 10.6385 38.3567 10.7211 38.51C10.9924 39.0585 12.0067 39.0585 12.278 38.51C12.3606 38.3567 12.3842 38.1562 12.3842 37.7257V37.1536H12.9621C13.3867 37.1536 13.5872 37.13 13.7406 37.0475C14.289 36.7762 14.289 35.7618 13.7406 35.4906C13.5637 35.3962 13.3454 35.3844 12.0775 35.3844H10.6149V34.8065C10.6149 34.1282 10.5206 33.8747 10.2021 33.7213C10.0901 33.6623 9.87775 33.6152 9.73032 33.6152C9.58288 33.6152 9.37057 33.6623 9.25852 33.7213Z" fill="black"/>
    <path d="M16.3357 35.4907C16.0821 35.6146 15.9229 35.9153 15.9229 36.2692C15.9229 36.8177 16.259 37.1538 16.8075 37.1538C17.3559 37.1538 17.6921 36.8177 17.6921 36.2692C17.6921 35.7207 17.3559 35.3846 16.8075 35.3846C16.66 35.3846 16.4477 35.4318 16.3357 35.4907Z" fill="black"/>
    <path d="M35.7966 35.4907C35.543 35.6146 35.3838 35.9153 35.3838 36.2692C35.3838 36.623 35.543 36.9238 35.7966 37.0476C36.2448 37.2717 36.8581 37.1243 37.0469 36.741C37.271 36.2928 37.1235 35.6794 36.7402 35.4907C36.6281 35.4317 36.4158 35.3846 36.2684 35.3846C36.121 35.3846 35.9087 35.4317 35.7966 35.4907Z" fill="black"/>
    <path d="M12.7966 39.0292C12.543 39.1531 12.3838 39.4538 12.3838 39.8077C12.3838 39.9551 12.4309 40.1674 12.4899 40.2795C12.6432 40.5979 12.8968 40.6923 13.5809 40.6923H14.153V41.5769V42.4615H12.6963C11.045 42.4615 10.9094 42.491 10.7207 42.8743C10.4966 43.3225 10.644 43.9359 11.0273 44.1246C11.2043 44.2189 11.4225 44.2307 12.6963 44.2307H14.153V44.8028C14.153 45.4869 14.2473 45.7405 14.5658 45.8938C15.014 46.1179 15.6273 45.9705 15.8161 45.5872C15.9104 45.4102 15.9222 45.192 15.9222 43.9182V42.4615H16.8068H17.6915V43.0336C17.6915 43.7177 17.7858 43.9713 18.1043 44.1246C18.5525 44.3487 19.1658 44.2013 19.3545 43.8179C19.4371 43.6646 19.4607 43.4641 19.4607 43.0336V42.4615H20.0386C20.4632 42.4615 20.6638 42.4379 20.8171 42.3554C21.3656 42.0841 21.3656 41.0697 20.8171 40.7984C20.6284 40.7041 20.3807 40.6923 18.2694 40.6923H15.9222V40.1143C15.9222 39.4361 15.8279 39.1825 15.5094 39.0292C15.3325 38.9407 15.132 38.9231 14.153 38.9231C13.174 38.9231 12.9735 38.9407 12.7966 39.0292Z" fill="black"/>
    <path d="M32.2585 39.0291C32.0049 39.1529 31.8457 39.4537 31.8457 39.8075C31.8457 40.356 32.1819 40.6921 32.7303 40.6921C33.2788 40.6921 33.6149 40.356 33.6149 39.8075C33.6149 39.2591 33.2788 38.9229 32.7303 38.9229C32.5829 38.9229 32.3706 38.9701 32.2585 39.0291Z" fill="black"/>
    <path d="M44.6433 39.0291C44.2718 39.2119 44.2305 39.3889 44.2305 40.6922C44.2305 41.6712 44.2482 41.8717 44.3366 42.0486C44.6079 42.5971 45.6223 42.5971 45.8935 42.0486C45.982 41.8717 45.9997 41.6712 45.9997 40.6922C45.9997 39.7132 45.982 39.5127 45.8935 39.3358C45.7697 39.0822 45.4689 38.923 45.1151 38.923C44.9676 38.923 44.7553 38.9702 44.6433 39.0291Z" fill="black"/>
    <path d="M9.25852 40.7983C9.00493 40.9222 8.8457 41.223 8.8457 41.5768C8.8457 42.1253 9.18186 42.4614 9.73032 42.4614C10.0842 42.4614 10.3849 42.3022 10.5088 42.0486C10.5678 41.9366 10.6149 41.7242 10.6149 41.5768C10.6149 41.0283 10.2788 40.6922 9.73032 40.6922C9.58288 40.6922 9.37057 40.7394 9.25852 40.7983Z" fill="black"/>
    <path d="M21.6433 42.5675C21.3248 42.7208 21.2304 42.9744 21.2304 43.6526V44.2306H20.6584C19.9743 44.2306 19.7207 44.3249 19.5674 44.6434C19.3433 45.0916 19.4907 45.7049 19.874 45.8937C20.051 45.988 20.2692 45.9998 21.543 45.9998H22.9997V46.5719C22.9997 47.5626 23.2061 47.769 24.1968 47.769H24.7689V48.3411C24.7689 49.0252 24.8633 49.2788 25.1817 49.4321C25.4884 49.5855 27.5879 49.5855 27.8945 49.4321C28.443 49.1608 28.443 48.1465 27.8945 47.8752C27.7412 47.7926 27.5407 47.769 27.1161 47.769H26.5381V46.8844V45.9998H27.1161C27.7943 45.9998 28.0479 45.9055 28.2012 45.587C28.4253 45.1388 28.2779 44.5255 27.8945 44.3367C27.7176 44.2424 27.4994 44.2306 26.2315 44.2306H24.7689V43.6526C24.7689 42.9744 24.6745 42.7208 24.3561 42.5675C24.1792 42.479 23.9786 42.4613 22.9997 42.4613C22.0207 42.4613 21.8202 42.479 21.6433 42.5675Z" fill="black"/>
    <path d="M53.489 42.5676C53.2354 42.6915 53.0762 42.9923 53.0762 43.3461C53.0762 43.8946 53.4123 44.2307 53.9608 44.2307C54.5092 44.2307 54.8454 43.8946 54.8454 43.3461C54.8454 42.7976 54.5092 42.4615 53.9608 42.4615C53.8134 42.4615 53.601 42.5087 53.489 42.5676Z" fill="black"/>
    <path d="M9.25852 44.3369C9.00493 44.4608 8.8457 44.7615 8.8457 45.1154C8.8457 45.6638 9.18186 46 9.73032 46C10.0842 46 10.3849 45.8408 10.5088 45.5872C10.5678 45.4751 10.6149 45.2628 10.6149 45.1154C10.6149 44.5669 10.2788 44.2308 9.73032 44.2308C9.58288 44.2308 9.37057 44.2779 9.25852 44.3369Z" fill="black"/>
    <path d="M44.6435 44.3368C44.2602 44.5255 44.2307 44.6612 44.2307 46.3066V47.7691H43.6587C43.2282 47.7691 43.0276 47.7927 42.8743 47.8753C42.3259 48.1466 42.3259 49.1609 42.8743 49.4322C43.0276 49.5148 43.2282 49.5384 43.6587 49.5384H44.2307V51.3076V53.0768H43.3461H42.4615V51.6143C42.4615 49.4912 42.5028 49.5384 40.6923 49.5384C39.3889 49.5384 39.212 49.5796 39.0292 49.9512C38.9348 50.1399 38.923 50.4289 38.923 53.3835V56.6153H38.351C37.9205 56.6153 37.72 56.6389 37.5666 56.7214C37.0182 56.9927 37.0182 58.0071 37.5666 58.2784C37.72 58.3609 37.9205 58.3845 38.351 58.3845H38.923V58.9566C38.923 59.6407 39.0174 59.8943 39.3359 60.0476C39.6425 60.2009 41.742 60.2009 42.0487 60.0476C42.3671 59.8943 42.4615 59.6407 42.4615 58.9566V58.3845H43.3461H44.2307V58.9566C44.2307 59.3871 44.2543 59.5876 44.3369 59.7409C44.6082 60.2894 45.6225 60.2894 45.8938 59.7409C45.9764 59.5876 46 59.3871 46 58.9566V58.3845H46.5779C47.2561 58.3845 47.5097 58.2902 47.663 57.9717C47.7515 57.7948 47.7692 57.5943 47.7692 56.6153C47.7692 55.6363 47.7515 55.4358 47.663 55.2589C47.3917 54.7104 46.3774 54.7104 46.1061 55.2589C46.0235 55.4122 46 55.6127 46 56.0373V56.6153H45.1153H44.2307V55.7307V54.8461H44.8087C45.7935 54.8461 46 54.6396 46 53.6489V53.0768H48.6538H51.3076V53.9614V54.8461H50.7356C50.0515 54.8461 49.7979 54.9404 49.6446 55.2589C49.4205 55.7071 49.5679 56.3204 49.9512 56.5091C50.1046 56.5917 50.3051 56.6153 50.7356 56.6153H51.3076V57.4999V58.3845H50.7356C50.3051 58.3845 50.1046 58.4081 49.9512 58.4907C49.4028 58.762 49.4028 59.7763 49.9512 60.0476C50.1341 60.142 50.3759 60.1538 52.1923 60.1538C54.4746 60.1538 54.5394 60.142 54.74 59.7409C54.9641 59.2927 54.8166 58.6794 54.4333 58.4907C54.28 58.4081 54.0794 58.3845 53.6548 58.3845H53.0769V57.4999V56.6153H53.6548C54.0794 56.6153 54.28 56.5917 54.4333 56.5091C54.9817 56.2379 54.9817 55.2235 54.4333 54.9522C54.28 54.8696 54.0794 54.8461 53.6548 54.8461H53.0769V53.0768V51.3076H53.6548C54.333 51.3076 54.5866 51.2132 54.74 50.8948C54.8933 50.5881 54.8933 48.4886 54.74 48.182C54.5866 47.8635 54.333 47.7691 53.6548 47.7691H53.0769V46.3066C53.0769 44.6612 53.0474 44.5255 52.6641 44.3368C52.4753 44.2366 52.1569 44.2307 48.6538 44.2307C45.1507 44.2307 44.8323 44.2366 44.6435 44.3368ZM51.3076 48.6538V51.3076H48.6538H46V48.6538V45.9999H48.6538H51.3076V48.6538Z" fill="black"/>
    <path d="M48.1814 47.8753C47.9278 47.9991 47.7686 48.2999 47.7686 48.6537C47.7686 49.2022 48.1047 49.5383 48.6532 49.5383C49.2016 49.5383 49.5378 49.2022 49.5378 48.6537C49.5378 48.1053 49.2016 47.7691 48.6532 47.7691C48.5057 47.7691 48.2934 47.8163 48.1814 47.8753Z" fill="black"/>
    <path d="M28.7204 46.1059C28.4668 46.2298 28.3076 46.5306 28.3076 46.8844C28.3076 47.2382 28.4668 47.539 28.7204 47.6629C29.1686 47.887 29.782 47.7395 29.9707 47.3562C30.1948 46.908 30.0474 46.2947 29.664 46.1059C29.552 46.047 29.3397 45.9998 29.1922 45.9998C29.0448 45.9998 28.8325 46.047 28.7204 46.1059Z" fill="black"/>
    <path d="M55.2585 46.1061C55.0049 46.2299 54.8457 46.5307 54.8457 46.8846C54.8457 47.032 54.8929 47.2443 54.9519 47.3563C55.1052 47.6748 55.3588 47.7692 56.0429 47.7692H56.6149V48.3412C56.6149 48.7717 56.6385 48.9722 56.7211 49.1256C56.8744 49.444 57.128 49.5384 57.8121 49.5384H58.3842V50.1104C58.3842 50.541 58.4078 50.7415 58.4903 50.8948C58.7616 51.4433 59.776 51.4433 60.0472 50.8948C60.1416 50.712 60.1534 50.4702 60.1534 48.6538C60.1534 46.3715 60.1416 46.3066 59.7406 46.1061C59.5578 46.0117 59.316 45.9999 57.4995 45.9999C55.6831 45.9999 55.4413 46.0117 55.2585 46.1061Z" fill="black"/>
    <path d="M11.6468 47.834C10.5145 48.005 9.68885 48.5653 9.25833 49.4499C8.875 50.2343 8.875 50.2225 8.875 53.9614C8.875 57.0222 8.88679 57.3879 8.98115 57.7358C9.31141 58.9566 10.0427 59.6879 11.2635 60.0181C11.6114 60.1125 11.9771 60.1243 15.0378 60.1243C18.0986 60.1243 18.4642 60.1125 18.8122 60.0181C20.0329 59.6879 20.7642 58.9566 21.0945 57.7358C21.1888 57.3879 21.2006 57.0222 21.2006 53.9614C21.2006 50.9007 21.1888 50.535 21.0945 50.1871C20.7701 48.9781 20.0506 48.2527 18.8417 47.9048C18.5291 47.8163 18.1104 47.8045 15.2442 47.7927C13.4632 47.7868 11.8414 47.8045 11.6468 47.834ZM17.6386 49.6209C18.6235 49.8332 19.2132 50.4466 19.396 51.4491C19.4845 51.9209 19.4845 56.002 19.396 56.4738C19.2132 57.4763 18.6235 58.0897 17.6386 58.302C17.1491 58.4022 13.074 58.4199 12.5255 58.3197C11.4994 58.1309 10.8683 57.4999 10.6796 56.4679C10.5912 56.0079 10.5912 51.915 10.6796 51.4491C10.7681 50.9597 11.0394 50.4171 11.3283 50.1576C11.6055 49.9099 12.0714 49.6858 12.4842 49.6032C12.6376 49.5738 13.7758 49.5502 15.0083 49.5443C16.7304 49.5443 17.3378 49.562 17.6386 49.6209Z" fill="black"/>
    <path d="M13.3097 51.4019C12.9264 51.5198 12.5961 51.8619 12.4781 52.257C12.4015 52.4988 12.3838 52.8704 12.3838 53.9614C12.3838 55.5891 12.431 55.8368 12.7966 56.2024C13.1623 56.5681 13.4099 56.6152 15.0376 56.6152C16.6771 56.6152 16.9366 56.5681 17.2905 56.1965C17.6443 55.825 17.6915 55.5714 17.6915 53.9614C17.6915 52.3514 17.6443 52.0978 17.2905 51.7263C16.9366 51.3547 16.6771 51.3075 15.014 51.3134C13.9407 51.3134 13.522 51.337 13.3097 51.4019Z" fill="black"/>
    <path d="M30.489 47.8754C30.1705 48.0287 30.0761 48.2823 30.0761 48.9605V49.5384H29.5041C28.82 49.5384 28.5664 49.6328 28.4131 49.9513C28.189 50.3995 28.3364 51.0128 28.7197 51.2015C28.8731 51.2841 29.0736 51.3077 29.5041 51.3077H30.0761V52.1923V53.0769H29.5041C29.0736 53.0769 28.8731 53.1005 28.7197 53.1831C28.1713 53.4543 28.1713 54.4687 28.7197 54.74C29.0264 54.8933 31.1259 54.8933 31.4326 54.74C31.8395 54.5395 31.8454 54.51 31.8454 51.8797V49.5384H32.4233C33.1015 49.5384 33.3551 49.4441 33.5084 49.1256C33.7326 48.6774 33.5851 48.0641 33.2018 47.8754C33.0249 47.7869 32.8243 47.7692 31.8454 47.7692C30.8664 47.7692 30.6659 47.7869 30.489 47.8754Z" fill="black"/>
    <path d="M35.7966 49.6445C35.543 49.7684 35.3838 50.0692 35.3838 50.423C35.3838 50.9715 35.7199 51.3076 36.2684 51.3076C36.8169 51.3076 37.153 50.9715 37.153 50.423C37.153 49.8745 36.8169 49.5384 36.2684 49.5384C36.121 49.5384 35.9087 49.5856 35.7966 49.6445Z" fill="black"/>
    <path d="M23.4128 51.4138C23.1592 51.5376 23 51.8384 23 52.1923C23 52.5461 23.1592 52.8469 23.4128 52.9707C23.861 53.1948 24.4744 53.0474 24.6631 52.6641C24.8872 52.2159 24.7397 51.6025 24.3564 51.4138C24.2444 51.3548 24.0321 51.3076 23.8846 51.3076C23.7372 51.3076 23.5249 51.3548 23.4128 51.4138Z" fill="black"/>
    <path d="M26.9509 51.4138C26.6973 51.5376 26.5381 51.8384 26.5381 52.1923C26.5381 52.5461 26.6973 52.8469 26.9509 52.9707C27.3991 53.1948 28.0124 53.0474 28.2012 52.6641C28.4253 52.2159 28.2778 51.6025 27.8945 51.4138C27.7824 51.3548 27.5701 51.3076 27.4227 51.3076C27.2753 51.3076 27.063 51.3548 26.9509 51.4138Z" fill="black"/>
    <path d="M57.0281 51.4138C56.7745 51.5377 56.6152 51.8384 56.6152 52.1923C56.6152 52.7408 56.9514 53.0769 57.4998 53.0769C58.0483 53.0769 58.3845 52.7408 58.3845 52.1923C58.3845 51.6438 58.0483 51.3077 57.4998 51.3077C57.3524 51.3077 57.1401 51.3549 57.0281 51.4138Z" fill="black"/>
    <path d="M55.2585 53.1829C55.0049 53.3067 54.8457 53.6075 54.8457 53.9613C54.8457 54.5098 55.1819 54.8459 55.7303 54.8459C56.2788 54.8459 56.6149 54.5098 56.6149 53.9613C56.6149 53.4129 56.2788 53.0767 55.7303 53.0767C55.5829 53.0767 55.3706 53.1239 55.2585 53.1829Z" fill="black"/>
    <path d="M23.4128 54.9523C23.1592 55.0761 23 55.3769 23 55.7307C23 55.8782 23.0472 56.0905 23.1062 56.2025C23.2595 56.521 23.5131 56.6154 24.1972 56.6154H24.7692V57.1874C24.7692 57.8715 24.8636 58.1251 25.1821 58.2784C25.3354 58.361 25.5359 58.3846 25.9664 58.3846H26.5385V58.9566C26.5385 59.3872 26.5621 59.5877 26.6446 59.741C26.9159 60.2895 27.9303 60.2895 28.2015 59.741C28.2841 59.5877 28.3077 59.3872 28.3077 58.9566V58.3846H28.8856C29.5638 58.3846 29.8174 58.2902 29.9708 57.9718C30.1949 57.5236 30.0474 56.9102 29.6641 56.7215C29.4872 56.6272 29.269 56.6154 28.001 56.6154H26.5385V56.0374C26.5385 55.3592 26.4441 55.1056 26.1256 54.9523C25.9487 54.8638 25.7482 54.8461 24.7692 54.8461C23.7903 54.8461 23.5897 54.8638 23.4128 54.9523Z" fill="black"/>
    <path d="M32.2585 54.9523C31.8752 55.141 31.8457 55.2766 31.8457 56.922V58.3846H31.2736C30.5895 58.3846 30.3359 58.4789 30.1826 58.7974C29.9585 59.2456 30.1059 59.8589 30.4893 60.0477C30.6721 60.142 30.9139 60.1538 32.7303 60.1538C34.5467 60.1538 34.7885 60.142 34.9713 60.0477C35.5198 59.7764 35.5198 58.762 34.9713 58.4907C34.818 58.4082 34.6175 58.3846 34.1929 58.3846H33.6149V57.5V56.6153H34.1929C34.8711 56.6153 35.1246 56.521 35.278 56.2025C35.5021 55.7543 35.3546 55.141 34.9713 54.9523C34.7944 54.8638 34.5939 54.8461 33.6149 54.8461C32.6359 54.8461 32.4354 54.8638 32.2585 54.9523Z" fill="black"/>
    <path d="M58.7966 54.9522C58.543 55.076 58.3838 55.3768 58.3838 55.7306C58.3838 56.2791 58.7199 56.6152 59.2684 56.6152C59.8169 56.6152 60.153 56.2791 60.153 55.7306C60.153 55.1822 59.8169 54.846 59.2684 54.846C59.121 54.846 58.9087 54.8932 58.7966 54.9522Z" fill="black"/>
    <path d="M57.0281 56.7215C56.6565 56.9043 56.6152 57.0812 56.6152 58.3846C56.6152 60.1538 56.6152 60.1538 58.3845 60.1538C59.6878 60.1538 59.8647 60.1125 60.0475 59.741C60.2716 59.2928 60.1242 58.6794 59.7409 58.4907C59.5875 58.4082 59.387 58.3846 58.9624 58.3846H58.3845V57.8066C58.3845 57.1284 58.2901 56.8748 57.9716 56.7215C57.8596 56.6625 57.6473 56.6153 57.4998 56.6153C57.3524 56.6153 57.1401 56.6625 57.0281 56.7215Z" fill="black"/>
    <path d="M23.4128 58.4907C23.1592 58.6146 23 58.9153 23 59.2692C23 59.8177 23.3362 60.1538 23.8846 60.1538C24.4331 60.1538 24.7692 59.8177 24.7692 59.2692C24.7692 58.7207 24.4331 58.3846 23.8846 58.3846C23.7372 58.3846 23.5249 58.4318 23.4128 58.4907Z" fill="black"/>
  </g>
  <defs>
    <clipPath id="clip0_12403_14437">
      <rect width="55.75" height="55.75" fill="white" transform="translate(6.62207 6.62256)"/>
    </clipPath>
  </defs>
</svg>
