<svg width="100" height="100" viewBox="0 0 100 100" fill="none" xmlns="http://www.w3.org/2000/svg">
  <path d="M0 16C0 7.16343 7.16344 0 16 0H83.995C92.8316 0 99.995 7.16344 99.995 16V83.995C99.995 92.8316 92.8316 99.995 83.995 99.995H16C7.16343 99.995 0 92.8316 0 83.995V16Z" fill="white"/>
  <g clip-path="url(#clip0_12403_14440)">
    <path d="M16.8804 12.9146C15.2393 13.1625 14.0428 13.9744 13.4188 15.2565C12.8633 16.3932 12.8633 16.3761 12.8633 21.7949C12.8633 26.2308 12.8804 26.7608 13.0171 27.265C13.4958 29.0343 14.5556 30.0941 16.3248 30.5727C16.8291 30.7095 17.359 30.7266 21.7949 30.7266C26.2308 30.7266 26.7607 30.7095 27.265 30.5727C29.0342 30.0941 30.0941 29.0343 30.5727 27.265C30.7094 26.7608 30.7265 26.2308 30.7265 21.7949C30.7265 17.359 30.7094 16.8291 30.5727 16.3249C30.1026 14.5727 29.0599 13.5214 27.3077 13.0172C26.8547 12.889 26.2479 12.8719 22.0941 12.8548C19.5129 12.8462 17.1624 12.8719 16.8804 12.9146ZM25.5641 15.5043C26.9915 15.812 27.8462 16.7009 28.1111 18.1539C28.2394 18.8377 28.2394 24.7522 28.1111 25.436C27.8462 26.889 26.9915 27.7778 25.5641 28.0855C24.8547 28.2308 18.9488 28.2565 18.1539 28.1112C16.6667 27.8377 15.7522 26.9231 15.4787 25.4274C15.3505 24.7608 15.3505 18.8291 15.4787 18.1539C15.6069 17.4445 16 16.6582 16.4188 16.2821C16.8205 15.9231 17.4958 15.5984 18.0941 15.4787C18.3163 15.436 19.9658 15.4018 21.7522 15.3932C24.2479 15.3932 25.1282 15.4189 25.5641 15.5043Z" fill="black"/>
    <path d="M19.2901 18.0853C18.7346 18.2563 18.2559 18.752 18.085 19.3246C17.9739 19.6751 17.9482 20.2135 17.9482 21.7947C17.9482 24.1537 18.0166 24.5127 18.5465 25.0426C19.0764 25.5725 19.4354 25.6409 21.7944 25.6409C24.1705 25.6409 24.5465 25.5725 25.0594 25.034C25.5722 24.4956 25.6406 24.128 25.6406 21.7947C25.6406 19.4614 25.5722 19.0939 25.0594 18.5554C24.5465 18.0169 24.1705 17.9486 21.7602 17.9571C20.2047 17.9571 19.5978 17.9913 19.2901 18.0853Z" fill="black"/>
    <path d="M33.9313 12.9744C33.3928 13.2394 33.333 13.4958 33.333 15.3847C33.333 17.2736 33.3928 17.53 33.9313 17.7949C34.5809 18.1197 35.4698 17.906 35.7433 17.3505C35.8715 17.0941 35.8971 16.8035 35.8971 15.3847C35.8971 13.9659 35.8715 13.6753 35.7433 13.4189C35.5638 13.0513 35.1279 12.8206 34.6151 12.8206C34.4014 12.8206 34.0937 12.8889 33.9313 12.9744Z" fill="black"/>
    <path d="M39.0592 12.9743C38.6917 13.1538 38.4609 13.5896 38.4609 14.1025C38.4609 14.8973 38.9481 15.3845 39.743 15.3845C40.5379 15.3845 41.025 14.8973 41.025 14.1025C41.025 13.3076 40.5379 12.8204 39.743 12.8204C39.5293 12.8204 39.2216 12.8888 39.0592 12.9743Z" fill="black"/>
    <path d="M44.1877 12.9744C43.7262 13.1966 43.5894 13.5641 43.5894 14.547V15.3846H42.7604C41.7689 15.3846 41.4014 15.5214 41.1792 15.9829C40.8544 16.6325 41.0681 17.5214 41.6236 17.7949C41.8459 17.9146 42.1365 17.9487 42.7604 17.9487H43.5894V20.0599C43.5894 22.453 43.6322 22.6496 44.1877 22.9231C44.8373 23.2479 45.7262 23.0342 45.9997 22.4787C46.1194 22.2564 46.1535 21.9658 46.1535 21.3419V20.5129H49.5553C52.6151 20.5129 52.9741 20.4958 53.2476 20.359C53.8031 20.0855 53.8459 19.8889 53.8459 17.4958V15.3846H54.6835C55.6664 15.3846 56.0339 15.2479 56.2561 14.7864C56.5809 14.1368 56.3672 13.2479 55.8117 12.9744C55.3672 12.7522 52.3245 12.7522 51.88 12.9744C51.4185 13.1966 51.2818 13.5641 51.2818 14.547V15.3846H50.4527C49.0168 15.3846 48.7177 15.6838 48.7177 17.1111V17.9487H47.4356H46.1535V15.8291C46.1535 13.9915 46.1365 13.6752 45.9997 13.4188C45.8202 13.0513 45.3843 12.8205 44.8715 12.8205C44.6578 12.8205 44.3501 12.8889 44.1877 12.9744Z" fill="black"/>
    <path d="M62.1364 12.9743C61.7689 13.1538 61.5381 13.5897 61.5381 14.1025C61.5381 14.6153 61.7689 15.0512 62.1364 15.2307C62.7859 15.5555 63.6748 15.3418 63.9483 14.7863C64.2731 14.1367 64.0595 13.2478 63.5039 12.9743C63.3415 12.8888 63.0338 12.8205 62.8201 12.8205C62.6065 12.8205 62.2988 12.8888 62.1364 12.9743Z" fill="black"/>
    <path d="M73.2905 12.9146C71.6495 13.1625 70.4529 13.9744 69.829 15.2565C69.2734 16.3932 69.2734 16.3761 69.2734 21.7949C69.2734 26.2308 69.2905 26.7608 69.4273 27.265C69.9059 29.0343 70.9657 30.0941 72.735 30.5727C73.2392 30.7095 73.7692 30.7266 78.2051 30.7266C82.641 30.7266 83.1709 30.7095 83.6751 30.5727C85.4444 30.0941 86.5042 29.0343 86.9828 27.265C87.1196 26.7608 87.1367 26.2308 87.1367 21.7949C87.1367 17.359 87.1196 16.8291 86.9828 16.3249C86.5128 14.5727 85.47 13.5214 83.7179 13.0172C83.2649 12.889 82.6581 12.8719 78.5042 12.8548C75.923 12.8462 73.5726 12.8719 73.2905 12.9146ZM81.9743 15.5043C83.4016 15.812 84.2563 16.7009 84.5213 18.1539C84.6495 18.8377 84.6495 24.7522 84.5213 25.436C84.2563 26.889 83.4016 27.7778 81.9743 28.0855C81.2649 28.2308 75.3589 28.2565 74.564 28.1112C73.0769 27.8377 72.1623 26.9231 71.8888 25.4274C71.7606 24.7608 71.7606 18.8291 71.8888 18.1539C72.017 17.4445 72.4102 16.6582 72.829 16.2821C73.2307 15.9231 73.9059 15.5984 74.5042 15.4787C74.7264 15.436 76.376 15.4018 78.1623 15.3932C80.6581 15.3932 81.5384 15.4189 81.9743 15.5043Z" fill="black"/>
    <path d="M75.7003 18.0853C75.1447 18.2563 74.6661 18.752 74.4952 19.3246C74.384 19.6751 74.3584 20.2135 74.3584 21.7947C74.3584 24.1537 74.4268 24.5127 74.9567 25.0426C75.4866 25.5725 75.8456 25.6409 78.2046 25.6409C80.5806 25.6409 80.9567 25.5725 81.4695 25.034C81.9823 24.4956 82.0507 24.128 82.0507 21.7947C82.0507 19.4614 81.9823 19.0939 81.4695 18.5554C80.9567 18.0169 80.5806 17.9486 78.1704 17.9571C76.6148 17.9571 76.008 17.9913 75.7003 18.0853Z" fill="black"/>
    <path d="M57.0084 15.5385C56.6409 15.718 56.4102 16.1539 56.4102 16.6667C56.4102 17.1795 56.6409 17.6154 57.0084 17.7949C57.658 18.1197 58.5469 17.906 58.8204 17.3505C59.1452 16.7009 58.9315 15.812 58.376 15.5385C58.2136 15.4531 57.9059 15.3847 57.6922 15.3847C57.4785 15.3847 57.1708 15.4531 57.0084 15.5385Z" fill="black"/>
    <path d="M36.4958 18.1024C36.1282 18.2819 35.8975 18.7178 35.8975 19.2306C35.8975 20.0255 36.3846 20.5127 37.1795 20.5127C37.9744 20.5127 38.4616 20.0255 38.4616 19.2306C38.4616 18.4358 37.9744 17.9486 37.1795 17.9486C36.9658 17.9486 36.6581 18.017 36.4958 18.1024Z" fill="black"/>
    <path d="M62.1363 18.1026C61.6747 18.3248 61.538 18.6923 61.538 19.6752V20.5128H58.1448C54.3328 20.5128 54.2901 20.5214 53.9995 21.1111C53.6747 21.7607 53.8884 22.6496 54.4439 22.9231C54.6662 23.0427 54.9568 23.0769 55.5807 23.0769H56.4098V23.906C56.4098 24.8974 56.5465 25.265 57.008 25.4872C57.2645 25.6239 57.5807 25.641 59.4269 25.641H61.538V26.4701C61.538 27.4615 61.6747 27.8291 62.1363 28.0513C62.7858 28.3761 63.6747 28.1624 63.9482 27.6068C64.0679 27.3846 64.1021 27.094 64.1021 26.4701V25.641H64.9397C65.9226 25.641 66.2901 25.5043 66.5123 25.0427C66.6405 24.7863 66.6662 24.4957 66.6662 23.0769C66.6662 21.6581 66.6405 21.3675 66.5123 21.1111C66.2901 20.6496 65.9226 20.5128 64.9397 20.5128H64.1021V19.6752C64.1021 18.6923 63.9653 18.3248 63.5038 18.1026C63.3414 18.0171 63.0337 17.9487 62.82 17.9487C62.6063 17.9487 62.2986 18.0171 62.1363 18.1026Z" fill="black"/>
    <path d="M33.9313 20.6666C33.5638 20.8461 33.333 21.282 33.333 21.7949C33.333 22.5897 33.8202 23.0769 34.6151 23.0769C35.4099 23.0769 35.8971 22.5897 35.8971 21.7949C35.8971 21 35.4099 20.5128 34.6151 20.5128C34.4014 20.5128 34.0937 20.5812 33.9313 20.6666Z" fill="black"/>
    <path d="M39.0599 20.6667C38.5983 20.8889 38.4616 21.2564 38.4616 22.2393V23.0769H37.6325C36.6411 23.0769 36.2735 23.2137 36.0513 23.6752C35.9231 23.9316 35.8975 24.2222 35.8975 25.641C35.8975 27.5299 35.9573 27.7863 36.4958 28.0513C37.1453 28.3761 38.0342 28.1624 38.3077 27.6068C38.4274 27.3846 38.4616 27.094 38.4616 26.4701V25.641H40.5812C42.9658 25.641 43.1624 25.5983 43.4359 25.0427C43.7607 24.3932 43.547 23.5043 42.9915 23.2308C42.7693 23.1111 42.4787 23.0769 41.8633 23.0769H41.0257V22.2393C41.0257 21.2564 40.8889 20.8889 40.4274 20.6667C40.265 20.5812 39.9573 20.5128 39.7436 20.5128C39.5299 20.5128 39.2222 20.5812 39.0599 20.6667Z" fill="black"/>
    <path d="M46.7516 23.2307C46.3841 23.4101 46.1533 23.846 46.1533 24.3589C46.1533 24.8717 46.3841 25.3076 46.7516 25.4871C47.4012 25.8119 48.2901 25.5982 48.5636 25.0426C48.8884 24.3931 48.6747 23.5042 48.1191 23.2307C47.9567 23.1452 47.649 23.0768 47.4354 23.0768C47.2217 23.0768 46.914 23.1452 46.7516 23.2307Z" fill="black"/>
    <path d="M49.3165 25.7948C48.7609 26.0683 48.7182 26.2649 48.7182 28.6495V30.7691H47.4361H46.1541V29.9315C46.1541 29.3161 46.1199 29.0255 46.0002 28.8033C45.6071 28.0084 44.137 28.0084 43.7438 28.8033C43.5216 29.2478 43.5216 32.2905 43.7438 32.7349C43.966 33.1965 44.3336 33.3332 45.325 33.3332H46.1541V34.1623C46.1541 35.1537 46.2908 35.5213 46.7524 35.7435C47.1968 35.9657 50.2395 35.9657 50.684 35.7435C51.2908 35.4443 51.2823 35.5042 51.2823 30.7691C51.2823 26.9144 51.2652 26.5127 51.1284 26.2392C50.9489 25.8717 50.513 25.6409 50.0002 25.6409C49.7865 25.6409 49.4789 25.7093 49.3165 25.7948Z" fill="black"/>
    <path d="M33.9313 28.3589C33.3928 28.6239 33.333 28.8803 33.333 30.7692C33.333 32.6581 33.3928 32.9145 33.9313 33.1795C34.5809 33.5042 35.4698 33.2906 35.7433 32.735C35.8715 32.4786 35.8971 32.188 35.8971 30.7692C35.8971 29.3504 35.8715 29.0598 35.7433 28.8034C35.5638 28.4359 35.1279 28.2051 34.6151 28.2051C34.4014 28.2051 34.0937 28.2735 33.9313 28.3589Z" fill="black"/>
    <path d="M39.0592 28.359C38.6917 28.5385 38.4609 28.9744 38.4609 29.4872C38.4609 30.2821 38.9481 30.7693 39.743 30.7693C40.5379 30.7693 41.025 30.2821 41.025 29.4872C41.025 28.6924 40.5379 28.2052 39.743 28.2052C39.5293 28.2052 39.2216 28.2736 39.0592 28.359Z" fill="black"/>
    <path d="M54.444 28.3588C54.0765 28.5383 53.8457 28.9742 53.8457 29.487C53.8457 29.9999 54.0765 30.4358 54.444 30.6152C55.0936 30.94 55.9825 30.7264 56.256 30.1708C56.5807 29.5212 56.3671 28.6323 55.8115 28.3588C55.6491 28.2734 55.3414 28.205 55.1278 28.205C54.9141 28.205 54.6064 28.2734 54.444 28.3588Z" fill="black"/>
    <path d="M59.5726 28.359C59.111 28.5812 58.9743 28.9487 58.9743 29.9316V30.7692H58.1452C57.5213 30.7692 57.2307 30.8034 57.0085 30.9231C56.5469 31.1453 56.4102 31.5128 56.4102 32.4957V33.3333H55.5811C54.5896 33.3333 54.2221 33.4701 53.9999 33.9316C53.8802 34.1538 53.8461 34.4444 53.8461 35.0598V35.8974H53.017C52.0255 35.8974 51.658 36.0342 51.4358 36.4957C51.3161 36.7179 51.282 37.0085 51.282 37.6239V38.4615H50.4529C49.829 38.4615 49.5384 38.4957 49.3161 38.6154C48.8546 38.8376 48.7179 39.2051 48.7179 40.188V41.0256H47.4358H46.1537V40.188C46.1537 39.2051 46.017 38.8376 45.5555 38.6154C44.9059 38.2906 44.017 38.5043 43.7435 39.0598C43.6067 39.3162 43.5896 39.6325 43.5896 41.4701V43.5897H42.3076H41.0255V42.7521C41.0255 41.7692 40.8888 41.4017 40.4273 41.1795C39.7777 40.8547 38.8888 41.0684 38.6153 41.6239C38.4956 41.8461 38.4614 42.1367 38.4614 42.7521V43.5897H37.6324C36.1965 43.5897 35.8973 43.8889 35.8973 45.3162V46.1538H34.6153H33.3332V45.3162C33.3332 44.3333 33.1965 43.9658 32.7349 43.7436C32.4785 43.6154 32.1879 43.5897 30.7691 43.5897C28.8802 43.5897 28.6238 43.6496 28.3589 44.188C28.0341 44.8376 28.2478 45.7265 28.8033 46C29.0255 46.1196 29.3161 46.1538 29.9401 46.1538H30.7691V46.9829C30.7691 47.9743 30.9059 48.3419 31.3674 48.5641C31.6409 48.7008 32.0597 48.7179 36.3503 48.7179H41.0255V49.547C41.0255 50.5384 41.1623 50.906 41.6238 51.1282C42.2734 51.453 43.1623 51.2393 43.4358 50.6837C43.5555 50.4615 43.5896 50.1709 43.5896 49.547V48.7179H45.7093C48.0939 48.7179 48.2905 48.6752 48.564 48.1196C48.8888 47.4701 48.6751 46.5812 48.1196 46.3077C47.8973 46.188 47.6067 46.1538 46.9914 46.1538H46.1537V44.8718V43.5897H49.5555C52.6153 43.5897 52.9743 43.5726 53.2478 43.4359C53.8033 43.1624 53.8461 42.9658 53.8461 40.5726V38.4615H54.6837C56.111 38.4615 56.4102 38.1624 56.4102 36.7265V35.8974H57.2478C58.6751 35.8974 58.9743 35.5983 58.9743 34.1624V33.3333H59.8119C60.7948 33.3333 61.1623 33.1966 61.3845 32.735C61.5127 32.4786 61.5384 32.188 61.5384 30.7692C61.5384 29.3504 61.5127 29.0598 61.3845 28.8034C61.205 28.4359 60.7691 28.2051 60.2563 28.2051C60.0426 28.2051 59.7349 28.2735 59.5726 28.359Z" fill="black"/>
    <path d="M64.7008 28.359C64.1196 28.6496 64.1025 28.7437 64.1025 32.0514C64.1025 35.359 64.1196 35.4531 64.7008 35.7437C65.3504 36.0684 66.2393 35.8548 66.5128 35.2992C66.6495 35.0343 66.6666 34.6838 66.6666 32.0514C66.6666 29.4189 66.6495 29.0684 66.5128 28.8035C66.3333 28.436 65.8974 28.2052 65.3846 28.2052C65.1709 28.2052 64.8632 28.2736 64.7008 28.359Z" fill="black"/>
    <path d="M13.4186 33.4872C13.0511 33.6667 12.8203 34.1026 12.8203 34.6154C12.8203 35.4103 13.3075 35.8975 14.1024 35.8975C14.8972 35.8975 15.3844 35.4103 15.3844 34.6154C15.3844 33.8205 14.8972 33.3334 14.1024 33.3334C13.8887 33.3334 13.581 33.4017 13.4186 33.4872Z" fill="black"/>
    <path d="M18.5466 33.4872C18.0851 33.7094 17.9483 34.077 17.9483 35.0599V35.8975H17.1193C15.6834 35.8975 15.3842 36.1966 15.3842 37.624V38.4616H14.5552C13.9312 38.4616 13.6406 38.4958 13.4184 38.6154C12.6235 39.0086 12.6235 40.4787 13.4184 40.8718C13.6919 41.0171 14.1706 41.0257 19.6834 41.0257H25.6406V41.8547C25.6406 42.4787 25.6748 42.7693 25.7945 42.9915C26.1877 43.7864 27.6577 43.7864 28.0509 42.9915C28.1706 42.7693 28.2047 42.4787 28.2047 41.8547V41.0257H29.0424C29.6577 41.0257 29.9483 40.9915 30.1706 40.8718C30.9654 40.4787 30.9654 39.0086 30.1706 38.6154C29.9141 38.4787 29.5979 38.4616 27.7603 38.4616H25.6406V37.624C25.6406 36.6411 25.5039 36.2735 25.0424 36.0513C24.3928 35.7265 23.5039 35.9402 23.2304 36.4958C23.1107 36.718 23.0765 37.0086 23.0765 37.624V38.4616H21.7945H20.5124V37.1795V35.8975H21.35C22.3329 35.8975 22.7005 35.7607 22.9227 35.2992C23.2475 34.6496 23.0338 33.7607 22.4782 33.4872C22.2218 33.359 21.9312 33.3334 20.5124 33.3334C19.0936 33.3334 18.803 33.359 18.5466 33.4872Z" fill="black"/>
    <path d="M26.2389 33.4872C25.8714 33.6667 25.6406 34.1026 25.6406 34.6154C25.6406 35.1282 25.8714 35.5641 26.2389 35.7436C26.5039 35.8804 26.8543 35.8975 29.4868 35.8975C32.7945 35.8975 32.8885 35.8804 33.1791 35.2992C33.5039 34.6496 33.2902 33.7607 32.7346 33.4872C32.4697 33.3505 32.1193 33.3334 29.4868 33.3334C26.8543 33.3334 26.5039 33.3505 26.2389 33.4872Z" fill="black"/>
    <path d="M36.4955 33.4872C35.94 33.7607 35.8972 33.9573 35.8972 36.3419V38.4616H35.0682C34.0767 38.4616 33.7092 38.5983 33.487 39.0599C33.2648 39.5043 33.2648 42.547 33.487 42.9915C33.8801 43.7864 35.3502 43.7864 35.7434 42.9915C35.863 42.7693 35.8972 42.4787 35.8972 41.8547V41.0257H36.7348C38.1622 41.0257 38.4613 40.7265 38.4613 39.2906V38.4616H40.581C42.4186 38.4616 42.7348 38.4445 42.9913 38.3077C43.7861 37.9146 43.7861 36.4445 42.9913 36.0513C42.7348 35.9146 42.4186 35.8975 40.581 35.8975H38.4613V35.0599C38.4613 34.077 38.3246 33.7094 37.863 33.4872C37.7007 33.4017 37.393 33.3334 37.1793 33.3334C36.9656 33.3334 36.6579 33.4017 36.4955 33.4872Z" fill="black"/>
    <path d="M69.8288 33.4872C69.2903 33.7522 69.2305 34.0086 69.2305 35.8975C69.2305 37.3163 69.2561 37.6069 69.3843 37.8633C69.6065 38.3248 69.9741 38.4616 70.9655 38.4616H71.7946V40.5727C71.7946 43.6581 71.7347 43.5898 74.3587 43.5898C77.0595 43.5898 76.9228 43.7863 76.9228 39.7436C76.9228 37.1111 76.9057 36.7607 76.7689 36.4957C76.4954 35.9402 76.2988 35.8975 73.9142 35.8975H71.7946V35.0598C71.7946 34.0769 71.6578 33.7094 71.1963 33.4872C71.0339 33.4017 70.7262 33.3334 70.5125 33.3334C70.2988 33.3334 69.9912 33.4017 69.8288 33.4872Z" fill="black"/>
    <path d="M77.5211 33.4873C77.1536 33.6667 76.9229 34.1026 76.9229 34.6155C76.9229 35.1283 77.1536 35.5642 77.5211 35.7437C78.1707 36.0684 79.0596 35.8548 79.3331 35.2992C79.6579 34.6496 79.4442 33.7608 78.8887 33.4873C78.7263 33.4018 78.4186 33.3334 78.2049 33.3334C77.9912 33.3334 77.6835 33.4018 77.5211 33.4873Z" fill="black"/>
    <path d="M82.6491 33.4871C82.2816 33.6666 82.0508 34.1025 82.0508 34.6153C82.0508 34.829 82.1192 35.1367 82.2046 35.2991C82.4268 35.7606 82.7944 35.8974 83.7858 35.8974H84.6149V36.7264C84.6149 37.7179 84.7516 38.0854 85.2132 38.3076C85.8627 38.6324 86.7516 38.4187 87.0251 37.8632C87.1533 37.6068 87.179 37.3162 87.179 35.8974C87.179 34.0085 87.1192 33.7521 86.5807 33.4871C86.3243 33.3589 86.0337 33.3333 84.6149 33.3333C83.1961 33.3333 82.9055 33.3589 82.6491 33.4871Z" fill="black"/>
    <path d="M62.1364 36.0512C61.7689 36.2307 61.5381 36.6666 61.5381 37.1794C61.5381 37.6922 61.7689 38.1281 62.1364 38.3076C62.7859 38.6324 63.6748 38.4187 63.9483 37.8632C64.2731 37.2136 64.0595 36.3247 63.5039 36.0512C63.3415 35.9657 63.0338 35.8974 62.8201 35.8974C62.6065 35.8974 62.2988 35.9657 62.1364 36.0512Z" fill="black"/>
    <path d="M57.0084 38.6154C56.6409 38.7949 56.4102 39.2308 56.4102 39.7436C56.4102 40.2565 56.6409 40.6923 57.0084 40.8718C57.658 41.1966 58.5469 40.9829 58.8204 40.4274C59.1452 39.7778 58.9315 38.8889 58.376 38.6154C58.2136 38.53 57.9059 38.4616 57.6922 38.4616C57.4785 38.4616 57.1708 38.53 57.0084 38.6154Z" fill="black"/>
    <path d="M80.0856 38.6154C79.7181 38.7949 79.4873 39.2308 79.4873 39.7436C79.4873 40.2564 79.7181 40.6923 80.0856 40.8718C80.342 41 80.6326 41.0256 82.0514 41.0256C83.9403 41.0256 84.1967 40.9658 84.4617 40.4273C84.7865 39.7778 84.5728 38.8889 84.0172 38.6154C83.7608 38.4872 83.4702 38.4615 82.0514 38.4615C80.6326 38.4615 80.342 38.4872 80.0856 38.6154Z" fill="black"/>
    <path d="M59.5722 41.1794C59.1106 41.4017 58.9739 41.7692 58.9739 42.7521V43.5897H56.8628C54.4696 43.5897 54.273 43.6324 53.9995 44.188C53.6747 44.8376 53.8884 45.7264 54.444 46C54.7175 46.1367 55.0765 46.1538 58.1448 46.1538H61.538V47.4359V48.7179H60.7089C60.085 48.7179 59.7944 48.7521 59.5722 48.8717C58.7773 49.2649 58.7773 50.735 59.5722 51.1282C59.8286 51.2649 60.1448 51.282 61.991 51.282H64.1021V52.1111C64.1021 53.547 64.4012 53.8461 65.8371 53.8461H66.6662V55.1282V56.4102H65.8371C64.8457 56.4102 64.4782 56.547 64.2559 57.0085C63.9312 57.6581 64.1448 58.547 64.7004 58.8205C64.9226 58.9401 65.2132 58.9743 65.8371 58.9743H66.6662V60.2564V61.5384H59.4269C52.7004 61.5384 52.1534 61.547 51.8799 61.6923C51.3243 61.9658 51.2816 62.1623 51.2816 64.547V66.6666H49.9995H48.7175V65.829C48.7175 65.2136 48.6833 64.923 48.5636 64.7008C48.1705 63.9059 46.7004 63.9059 46.3072 64.7008C46.1876 64.923 46.1534 65.2136 46.1534 65.829V66.6666H44.8713H43.5893V65.829C43.5893 65.2136 43.5551 64.923 43.4354 64.7008C43.0423 63.9059 41.5722 63.9059 41.179 64.7008C41.0423 64.9572 41.0252 65.2735 41.0252 67.1111V69.2307H40.1961C38.7602 69.2307 38.4611 69.5299 38.4611 70.9572V71.7948H37.179H35.897V69.2307V66.6666H36.7346C37.35 66.6666 37.6406 66.6324 37.8628 66.5128C38.6577 66.1196 38.6577 64.6495 37.8628 64.2564C37.6406 64.1367 37.35 64.1025 36.7346 64.1025H35.897V63.2649C35.897 62.282 35.7602 61.9145 35.2987 61.6923C34.6491 61.3675 33.7602 61.5812 33.4867 62.1367C33.3671 62.3589 33.3329 62.6495 33.3329 63.2649V64.1025H30.7688H28.2047V62.8205V61.5384H30.3243C33.4611 61.5384 33.3329 61.6666 33.3329 58.5213V56.4102H34.1705C35.5978 56.4102 35.897 56.1111 35.897 54.6752V53.8461H37.179H38.4611V54.6752C38.4611 55.6666 38.5978 56.0341 39.0594 56.2564C39.3243 56.3931 39.6747 56.4102 42.3072 56.4102C44.9397 56.4102 45.2901 56.3931 45.5551 56.2564C46.0166 56.0341 46.1534 55.6666 46.1534 54.6752V53.8461H46.991C47.9739 53.8461 48.3414 53.7094 48.5636 53.2478C48.8884 52.5982 48.6747 51.7094 48.1192 51.4359C47.8628 51.3076 47.5722 51.282 46.1534 51.282C44.7346 51.282 44.444 51.3076 44.1876 51.4359C43.726 51.6581 43.5893 52.0256 43.5893 53.0085V53.8461H42.3072H41.0252V53.0085C41.0252 52.0256 40.8884 51.6581 40.4269 51.4359C40.1534 51.2991 39.7517 51.282 35.897 51.282C32.0423 51.282 31.6406 51.2991 31.3671 51.4359C30.9055 51.6581 30.7688 52.0256 30.7688 53.0085V53.8461H29.4867H28.2047V53.0085C28.2047 51.5812 27.9055 51.282 26.4782 51.282H25.6406V50V48.7179H26.4782C27.0935 48.7179 27.3841 48.6837 27.6064 48.5641C28.4012 48.1709 28.4012 46.7008 27.6064 46.3076C27.3841 46.188 27.0935 46.1538 26.4782 46.1538H25.6406V45.3162C25.6406 44.3333 25.5038 43.9658 25.0423 43.7435C24.3927 43.4188 23.5038 43.6324 23.2303 44.188C23.0935 44.4615 23.0765 44.8205 23.0765 47.8803V51.282H22.2474C20.8115 51.282 20.5124 51.5812 20.5124 53.0085V53.8461H19.6833C18.6918 53.8461 18.3243 53.9829 18.1021 54.4444C17.9653 54.7179 17.9482 55.1196 17.9482 58.9743C17.9482 63.7094 17.9397 63.6495 18.5465 63.9487C19.1961 64.2735 20.085 64.0598 20.3585 63.5042C20.4782 63.282 20.5124 62.9914 20.5124 62.3675V61.5384H21.35C21.9653 61.5384 22.2559 61.5042 22.4782 61.3846C23.273 60.9914 23.273 59.5213 22.4782 59.1282C22.2559 59.0085 21.9653 58.9743 21.35 58.9743H20.5124V57.6923V56.4102H21.7944H23.0765V57.2393C23.0765 58.6752 23.3756 58.9743 24.8115 58.9743H25.6406V61.5384V64.1025H24.8115C24.1876 64.1025 23.897 64.1367 23.6747 64.2564C22.8799 64.6495 22.8799 66.1196 23.6747 66.5128C23.9482 66.6495 24.3671 66.6666 28.6577 66.6666H33.3329V70.0598C33.3329 73.1282 33.35 73.4871 33.4867 73.7606C33.7089 74.2222 34.0765 74.3589 35.0679 74.3589H35.897V75.641V76.923H35.0679C34.0765 76.923 33.7089 77.0598 33.4867 77.5213C33.3585 77.7777 33.3329 78.0683 33.3329 79.4871C33.3329 81.376 33.3927 81.6324 33.9312 81.8974C34.5807 82.2222 35.4696 82.0085 35.7431 81.4529C35.8628 81.2307 35.897 80.9401 35.897 80.3162V79.4871H36.7346C38.1619 79.4871 38.4611 79.188 38.4611 77.7521V76.923H39.2987C40.726 76.923 41.0252 76.6239 41.0252 75.188V74.3589H41.8628C42.8457 74.3589 43.2132 74.2222 43.4354 73.7606C43.5722 73.5042 43.5893 73.188 43.5893 71.3418V69.2307H44.8713H46.1534V70.0598C46.1534 71.0512 46.2901 71.4188 46.7517 71.641C47.4012 71.9658 48.2901 71.7521 48.5636 71.1965C48.6833 70.9743 48.7175 70.6837 48.7175 70.0598V69.2307H50.8371C52.6747 69.2307 52.991 69.2136 53.2474 69.0769C53.7089 68.8547 53.8457 68.4871 53.8457 67.4957V66.6666H55.1277H56.4098V68.7777C56.4098 70.6239 56.4269 70.9401 56.5636 71.1965C56.7859 71.6581 57.1534 71.7948 58.1448 71.7948H58.9739V73.0769V74.3589H56.4098H53.8457V73.5213C53.8457 72.9059 53.8115 72.6153 53.6918 72.3931C53.2987 71.5982 51.8286 71.5982 51.4354 72.3931C51.3158 72.6153 51.2816 72.9059 51.2816 73.5213V74.3589H50.4525C49.4611 74.3589 49.0935 74.4957 48.8713 74.9572C48.7346 75.2136 48.7175 75.5299 48.7175 77.3675V79.4871H47.4354H46.1534V78.6495C46.1534 77.6666 46.0166 77.2991 45.5551 77.0769C44.9055 76.7521 44.0166 76.9658 43.7431 77.5213C43.6064 77.7777 43.5893 78.094 43.5893 79.9316V82.0512H42.7602C41.7688 82.0512 41.4012 82.188 41.179 82.6495C40.8542 83.2991 41.0679 84.188 41.6235 84.4615C41.8799 84.5982 42.1961 84.6153 44.0423 84.6153H46.1534V85.4444C46.1534 86.0683 46.1876 86.3589 46.3072 86.5812C46.7004 87.376 48.1705 87.376 48.5636 86.5812C48.6833 86.3589 48.7175 86.0683 48.7175 85.4444V84.6153H49.9995H51.2816V85.4444C51.2816 86.4359 51.4183 86.8034 51.8799 87.0256C52.1363 87.1538 52.4269 87.1794 53.8457 87.1794C55.2645 87.1794 55.5551 87.1538 55.8115 87.0256C56.6064 86.6324 56.6064 85.1623 55.8115 84.7692C55.5893 84.6495 55.2987 84.6153 54.6833 84.6153H53.8457V83.7777C53.8457 82.3504 53.5465 82.0512 52.1192 82.0512H51.2816V80.7692V79.4871H52.1192C53.5465 79.4871 53.8457 79.188 53.8457 77.7521V76.923H55.1277H56.4098V77.7521C56.4098 78.7435 56.5465 79.1111 57.0081 79.3333C57.4525 79.5555 60.4953 79.5555 60.9397 79.3333C61.5294 79.0427 61.538 79 61.538 75.188V71.7948H62.82H64.1021V73.9059C64.1021 75.7521 64.1192 76.0683 64.2559 76.3247C64.4782 76.7863 64.8457 76.923 65.8371 76.923H66.6662V78.2051V79.4871H65.8371C64.8457 79.4871 64.4782 79.6239 64.2559 80.0854C64.1192 80.3504 64.1021 80.7008 64.1021 83.3333C64.1021 86.641 64.1192 86.735 64.7004 87.0256C65.35 87.3504 66.2389 87.1367 66.5124 86.5812C66.632 86.3589 66.6662 86.0683 66.6662 85.4444V84.6153H67.5038C68.4867 84.6153 68.8542 84.4786 69.0765 84.0171C69.2132 83.7435 69.2303 83.3846 69.2303 80.3162V76.923H71.7944H74.3585V77.7521C74.3585 78.7435 74.4953 79.1111 74.9568 79.3333C75.4012 79.5555 78.444 79.5555 78.8884 79.3333C79.6833 78.9401 79.6833 77.47 78.8884 77.0769C78.6662 76.9572 78.3756 76.923 77.7602 76.923H76.9226V75.641V74.3589H77.7602C78.7431 74.3589 79.1106 74.2222 79.3329 73.7606C79.4696 73.5042 79.4867 73.188 79.4867 71.3418V69.2307H80.7688H82.0508V71.3418C82.0508 73.188 82.0679 73.5042 82.2047 73.7606C82.5978 74.5555 84.0679 74.5555 84.4611 73.7606C84.5978 73.5042 84.6149 73.188 84.6149 71.3418V69.2307H85.4525C86.0679 69.2307 86.3585 69.1965 86.5807 69.0769C87.3756 68.6837 87.3756 67.2136 86.5807 66.8205C86.3243 66.6837 86.0081 66.6666 84.1705 66.6666H82.0508V62.8205V58.9743H82.8884C83.8713 58.9743 84.2389 58.8376 84.4611 58.376C84.5978 58.1025 84.6149 57.7435 84.6149 54.6752V51.282H85.4525C86.4354 51.282 86.803 51.1453 87.0252 50.6837C87.1534 50.4273 87.179 50.1367 87.179 48.7179C87.179 46.094 87.2474 46.1538 84.1705 46.1538H82.0508V45.3162C82.0508 44.3333 81.9141 43.9658 81.4525 43.7435C81.1961 43.6153 80.9055 43.5897 79.4867 43.5897C77.5978 43.5897 77.3414 43.6495 77.0765 44.188C76.7517 44.8376 76.9653 45.7264 77.5209 46C77.7431 46.1196 78.0337 46.1538 78.6577 46.1538H79.4867V48.2649C79.4867 50.1111 79.5038 50.4273 79.6406 50.6837C79.8628 51.1453 80.2303 51.282 81.2218 51.282H82.0508V53.8461V56.4102H80.7688H79.4867V55.5726C79.4867 54.9572 79.4525 54.6666 79.3329 54.4444C79.1106 53.9829 78.7431 53.8461 77.7602 53.8461H76.9226V51.7265C76.9226 49.8888 76.9055 49.5726 76.7688 49.3162C76.5465 48.8547 76.179 48.7179 75.1961 48.7179H74.3585V47.8803C74.3585 46.8974 74.2218 46.5299 73.7602 46.3076C73.4867 46.1709 73.0679 46.1538 68.7859 46.1538H64.1021V45.3162C64.1021 44.7008 64.0679 44.4102 63.9483 44.188C63.726 43.7264 63.3585 43.5897 62.3756 43.5897H61.538V42.7521C61.538 41.7692 61.4012 41.4017 60.9397 41.1794C60.7773 41.094 60.4696 41.0256 60.2559 41.0256C60.0423 41.0256 59.7346 41.094 59.5722 41.1794ZM71.7944 52.1111C71.7944 53.1025 71.9312 53.47 72.3927 53.6923C72.6149 53.8119 72.9055 53.8461 73.5294 53.8461H74.3585V54.6752C74.3585 56.1111 74.6577 56.4102 76.0936 56.4102H76.9226V57.2393C76.9226 58.2307 77.0594 58.5982 77.5209 58.8205C77.7431 58.9401 78.0337 58.9743 78.6577 58.9743H79.4867V61.5384V64.1025H74.3585H69.2303V57.6923V51.282H70.5124H71.7944V52.1111ZM30.7688 57.6923V58.9743H29.4867H28.2047V57.6923V56.4102H29.4867H30.7688V57.6923ZM61.538 65.3846V66.6666H60.2559H58.9739V65.3846V64.1025H60.2559H61.538V65.3846ZM74.3585 70.5128V74.3589H70.5124H66.6662V70.5128V66.6666H70.5124H74.3585V70.5128Z" fill="black"/>
    <path d="M72.3932 56.5642C71.8548 56.8291 71.7949 57.0855 71.7949 58.9744C71.7949 60.3932 71.8206 60.6838 71.9488 60.9402C72.3419 61.7351 73.812 61.7351 74.2052 60.9402C74.3334 60.6838 74.359 60.3932 74.359 58.9744C74.359 57.5556 74.3334 57.265 74.2052 57.0086C74.0257 56.6411 73.5898 56.4103 73.077 56.4103C72.8633 56.4103 72.5556 56.4787 72.3932 56.5642Z" fill="black"/>
    <path d="M69.8288 69.3847C69.4612 69.5642 69.2305 70 69.2305 70.5129C69.2305 71.3077 69.7176 71.7949 70.5125 71.7949C71.3074 71.7949 71.7946 71.3077 71.7946 70.5129C71.7946 69.718 71.3074 69.2308 70.5125 69.2308C70.2988 69.2308 69.9912 69.2992 69.8288 69.3847Z" fill="black"/>
    <path d="M64.7008 41.1793C64.3333 41.3588 64.1025 41.7947 64.1025 42.3075C64.1025 42.8204 64.3333 43.2563 64.7008 43.4358C64.9572 43.564 65.2478 43.5896 66.6666 43.5896C68.5555 43.5896 68.8119 43.5298 69.0769 42.9913C69.4017 42.3417 69.188 41.4528 68.6325 41.1793C68.376 41.0511 68.0854 41.0255 66.6666 41.0255C65.2478 41.0255 64.9572 41.0511 64.7008 41.1793Z" fill="black"/>
    <path d="M85.2135 41.1794C84.846 41.3589 84.6152 41.7948 84.6152 42.3076C84.6152 42.8204 84.846 43.2563 85.2135 43.4358C85.8631 43.7606 86.752 43.5469 87.0255 42.9914C87.3503 42.3418 87.1366 41.4529 86.581 41.1794C86.4187 41.0939 86.111 41.0255 85.8973 41.0255C85.6836 41.0255 85.3759 41.0939 85.2135 41.1794Z" fill="black"/>
    <path d="M15.9831 43.7435C15.6155 43.9229 15.3848 44.3588 15.3848 44.8717C15.3848 45.0853 15.4531 45.393 15.5386 45.5554C15.7608 46.017 16.1284 46.1537 17.1198 46.1537H17.9489V46.9828C17.9489 47.9742 18.0856 48.3418 18.5472 48.564C19.1967 48.8888 20.0856 48.6751 20.3591 48.1195C20.4873 47.8631 20.513 47.5725 20.513 46.1537C20.513 43.5896 20.513 43.5896 17.9489 43.5896C16.5301 43.5896 16.2395 43.6153 15.9831 43.7435Z" fill="black"/>
    <path d="M13.4186 46.3076C12.8118 46.6068 12.8203 46.547 12.8203 51.282C12.8203 56.017 12.8118 55.9572 13.4186 56.2564C14.0682 56.5811 14.9571 56.3675 15.2306 55.8119C15.3502 55.5897 15.3844 55.2991 15.3844 54.6752V53.8461H16.222C17.2049 53.8461 17.5725 53.7093 17.7947 53.2478C18.0169 52.8034 18.0169 49.7606 17.7947 49.3162C17.5725 48.8546 17.2049 48.7179 16.222 48.7179H15.3844V47.8803C15.3844 46.8974 15.2477 46.5299 14.7861 46.3076C14.6237 46.2222 14.316 46.1538 14.1024 46.1538C13.8887 46.1538 13.581 46.2222 13.4186 46.3076Z" fill="black"/>
    <path d="M28.8034 48.8717C28.4358 49.0512 28.2051 49.4871 28.2051 49.9999C28.2051 50.7948 28.6923 51.282 29.4871 51.282C30.282 51.282 30.7692 50.7948 30.7692 49.9999C30.7692 49.2051 30.282 48.7179 29.4871 48.7179C29.2735 48.7179 28.9658 48.7863 28.8034 48.8717Z" fill="black"/>
    <path d="M49.3161 48.8718C48.9485 49.0513 48.7178 49.4872 48.7178 50C48.7178 50.5128 48.9485 50.9487 49.3161 51.1282C49.9656 51.453 50.8545 51.2393 51.128 50.6837C51.4528 50.0342 51.2391 49.1453 50.6836 48.8718C50.5212 48.7863 50.2135 48.7179 49.9998 48.7179C49.7861 48.7179 49.4785 48.7863 49.3161 48.8718Z" fill="black"/>
    <path d="M51.8805 51.4357C51.513 51.6152 51.2822 52.0511 51.2822 52.5639C51.2822 53.0768 51.513 53.5127 51.8805 53.6921C52.5301 54.0169 53.419 53.8033 53.6925 53.2477C54.0173 52.5981 53.8036 51.7092 53.248 51.4357C53.0856 51.3503 52.778 51.2819 52.5643 51.2819C52.3506 51.2819 52.0429 51.3503 51.8805 51.4357Z" fill="black"/>
    <path d="M46.7516 56.5641C46.3841 56.7436 46.1533 57.1795 46.1533 57.6923C46.1533 58.4872 46.6405 58.9744 47.4354 58.9744C48.2302 58.9744 48.7174 58.4872 48.7174 57.6923C48.7174 56.8974 48.2302 56.4103 47.4354 56.4103C47.2217 56.4103 46.914 56.4786 46.7516 56.5641Z" fill="black"/>
    <path d="M59.5729 56.5641C59.2054 56.7436 58.9746 57.1795 58.9746 57.6923C58.9746 58.4872 59.4618 58.9744 60.2567 58.9744C61.0515 58.9744 61.5387 58.4872 61.5387 57.6923C61.5387 56.8974 61.0515 56.4103 60.2567 56.4103C60.043 56.4103 59.7353 56.4786 59.5729 56.5641Z" fill="black"/>
    <path d="M13.4186 59.1281C13.0511 59.3076 12.8203 59.7435 12.8203 60.2563C12.8203 61.0512 13.3075 61.5383 14.1024 61.5383C14.6152 61.5383 15.0511 61.3076 15.2306 60.94C15.316 60.7776 15.3844 60.47 15.3844 60.2563C15.3844 59.4614 14.8972 58.9742 14.1024 58.9742C13.8887 58.9742 13.581 59.0426 13.4186 59.1281Z" fill="black"/>
    <path d="M36.4958 59.1281C36.1282 59.3076 35.8975 59.7435 35.8975 60.2563C35.8975 60.7691 36.1282 61.205 36.4958 61.3845C37.1453 61.7093 38.0342 61.4956 38.3077 60.9401C38.6325 60.2905 38.4188 59.4016 37.8633 59.1281C37.7009 59.0427 37.3932 58.9743 37.1795 58.9743C36.9658 58.9743 36.6581 59.0427 36.4958 59.1281Z" fill="black"/>
    <path d="M41.6237 59.1281C41.2562 59.3076 41.0254 59.7435 41.0254 60.2563C41.0254 60.7691 41.2562 61.205 41.6237 61.3845C42.2733 61.7093 43.1621 61.4956 43.4356 60.9401C43.7604 60.2905 43.5468 59.4016 42.9912 59.1281C42.8288 59.0427 42.5211 58.9743 42.3074 58.9743C42.0938 58.9743 41.7861 59.0427 41.6237 59.1281Z" fill="black"/>
    <path d="M39.0592 61.6923C38.6917 61.8718 38.4609 62.3077 38.4609 62.8205C38.4609 63.3334 38.6917 63.7693 39.0592 63.9487C39.7088 64.2735 40.5977 64.0599 40.8712 63.5043C41.196 62.8547 40.9823 61.9658 40.4267 61.6923C40.2644 61.6069 39.9567 61.5385 39.743 61.5385C39.5293 61.5385 39.2216 61.6069 39.0592 61.6923Z" fill="black"/>
    <path d="M15.9831 64.2562C15.6155 64.4357 15.3848 64.8716 15.3848 65.3845C15.3848 66.1793 15.8719 66.6665 16.6668 66.6665C17.1796 66.6665 17.6155 66.4357 17.795 66.0682C17.8805 65.9058 17.9489 65.5981 17.9489 65.3845C17.9489 64.5896 17.4617 64.1024 16.6668 64.1024C16.4531 64.1024 16.1454 64.1708 15.9831 64.2562Z" fill="black"/>
    <path d="M16.8804 69.3248C15.2393 69.5726 14.0428 70.3846 13.4188 71.6666C12.8633 72.8034 12.8633 72.7863 12.8633 78.2051C12.8633 82.641 12.8804 83.1709 13.0171 83.6752C13.4958 85.4444 14.5556 86.5042 16.3248 86.9829C16.8291 87.1196 17.359 87.1367 21.7949 87.1367C26.2308 87.1367 26.7607 87.1196 27.265 86.9829C29.0342 86.5042 30.0941 85.4444 30.5727 83.6752C30.7094 83.1709 30.7265 82.641 30.7265 78.2051C30.7265 73.7692 30.7094 73.2393 30.5727 72.735C30.1026 70.9829 29.0599 69.9316 27.3077 69.4273C26.8547 69.2991 26.2479 69.282 22.0941 69.2649C19.5129 69.2564 17.1624 69.282 16.8804 69.3248ZM25.5641 71.9145C26.9915 72.2222 27.8462 73.1111 28.1111 74.5641C28.2394 75.2478 28.2394 81.1624 28.1111 81.8461C27.8462 83.2991 26.9915 84.188 25.5641 84.4957C24.8547 84.641 18.9488 84.6666 18.1539 84.5213C16.6667 84.2478 15.7522 83.3333 15.4787 81.8376C15.3505 81.1709 15.3505 75.2393 15.4787 74.5641C15.6069 73.8547 16 73.0683 16.4188 72.6923C16.8205 72.3333 17.4958 72.0085 18.0941 71.8889C18.3163 71.8461 19.9658 71.8119 21.7522 71.8034C24.2479 71.8034 25.1282 71.829 25.5641 71.9145Z" fill="black"/>
    <path d="M19.2901 74.4957C18.7346 74.6667 18.2559 75.1624 18.085 75.735C17.9739 76.0855 17.9482 76.6239 17.9482 78.2051C17.9482 80.5641 18.0166 80.9231 18.5465 81.453C19.0764 81.9829 19.4354 82.0513 21.7944 82.0513C24.1705 82.0513 24.5465 81.9829 25.0594 81.4444C25.5722 80.906 25.6406 80.5384 25.6406 78.2051C25.6406 75.8718 25.5722 75.5043 25.0594 74.9658C24.5465 74.4273 24.1705 74.359 21.7602 74.3675C20.2047 74.3675 19.5978 74.4017 19.2901 74.4957Z" fill="black"/>
    <path d="M80.0856 74.5128C79.7181 74.6923 79.4873 75.1282 79.4873 75.641C79.4873 76.4359 79.9745 76.9231 80.7694 76.9231C81.5642 76.9231 82.0514 76.4359 82.0514 75.641C82.0514 74.8462 81.5642 74.359 80.7694 74.359C80.5557 74.359 80.248 74.4274 80.0856 74.5128Z" fill="black"/>
    <path d="M85.2135 74.5128C84.846 74.6923 84.6152 75.1282 84.6152 75.641C84.6152 76.4359 85.1024 76.9231 85.8973 76.9231C86.6922 76.9231 87.1793 76.4359 87.1793 75.641C87.1793 74.8462 86.6922 74.359 85.8973 74.359C85.6836 74.359 85.3759 74.4274 85.2135 74.5128Z" fill="black"/>
    <path d="M82.6491 77.0768C82.2816 77.2563 82.0508 77.6922 82.0508 78.205C82.0508 78.9999 82.538 79.4871 83.3328 79.4871C84.1277 79.4871 84.6149 78.9999 84.6149 78.205C84.6149 77.4101 84.1277 76.923 83.3328 76.923C83.1192 76.923 82.8115 76.9913 82.6491 77.0768Z" fill="black"/>
    <path d="M72.3932 79.6409C71.8548 79.9059 71.7949 80.1623 71.7949 82.0512C71.7949 83.9401 71.8548 84.1965 72.3932 84.4614C73.0428 84.7862 73.9317 84.5725 74.2052 84.017C74.3334 83.7606 74.359 83.47 74.359 82.0512C74.359 80.6324 74.3334 80.3418 74.2052 80.0854C74.0257 79.7178 73.5898 79.4871 73.077 79.4871C72.8633 79.4871 72.5556 79.5555 72.3932 79.6409Z" fill="black"/>
    <path d="M80.0856 79.641C79.7181 79.8205 79.4873 80.2564 79.4873 80.7692C79.4873 81.5641 79.9745 82.0513 80.7694 82.0513C81.5642 82.0513 82.0514 81.5641 82.0514 80.7692C82.0514 79.9743 81.5642 79.4872 80.7694 79.4872C80.5557 79.4872 80.248 79.5555 80.0856 79.641Z" fill="black"/>
    <path d="M85.2135 79.641C84.846 79.8205 84.6152 80.2564 84.6152 80.7692C84.6152 81.5641 85.1024 82.0513 85.8973 82.0513C86.6922 82.0513 87.1793 81.5641 87.1793 80.7692C87.1793 79.9743 86.6922 79.4872 85.8973 79.4872C85.6836 79.4872 85.3759 79.5555 85.2135 79.641Z" fill="black"/>
    <path d="M59.5729 82.205C59.2054 82.3845 58.9746 82.8204 58.9746 83.3332C58.9746 84.1281 59.4618 84.6152 60.2567 84.6152C61.0515 84.6152 61.5387 84.1281 61.5387 83.3332C61.5387 82.5383 61.0515 82.0511 60.2567 82.0511C60.043 82.0511 59.7353 82.1195 59.5729 82.205Z" fill="black"/>
    <path d="M77.5211 82.2051C76.9827 82.4701 76.9229 82.7265 76.9229 84.6154C76.9229 86.5043 76.9827 86.7607 77.5211 87.0256C78.1707 87.3504 79.0596 87.1368 79.3331 86.5812C79.4613 86.3248 79.487 86.0342 79.487 84.6154C79.487 83.1966 79.4613 82.906 79.3331 82.6496C79.1536 82.2821 78.7177 82.0513 78.2049 82.0513C77.9912 82.0513 77.6835 82.1197 77.5211 82.2051Z" fill="black"/>
    <path d="M82.6491 82.2051C82.1106 82.4701 82.0508 82.7265 82.0508 84.6154C82.0508 86.5043 82.1106 86.7607 82.6491 87.0256C83.2986 87.3504 84.1875 87.1368 84.461 86.5812C84.5892 86.3248 84.6149 86.0342 84.6149 84.6154C84.6149 83.1966 84.5892 82.906 84.461 82.6496C84.2816 82.2821 83.8457 82.0513 83.3328 82.0513C83.1192 82.0513 82.8115 82.1197 82.6491 82.2051Z" fill="black"/>
    <path d="M33.9313 84.7692C33.5638 84.9487 33.333 85.3846 33.333 85.8974C33.333 86.4102 33.5638 86.8461 33.9313 87.0256C34.1963 87.1623 34.5467 87.1794 37.1792 87.1794C40.4869 87.1794 40.5809 87.1623 40.8715 86.5812C41.1963 85.9316 40.9826 85.0427 40.427 84.7692C40.1621 84.6324 39.8116 84.6153 37.1792 84.6153C34.5467 84.6153 34.1963 84.6324 33.9313 84.7692Z" fill="black"/>
    <path d="M69.8288 84.7692C69.4612 84.9487 69.2305 85.3846 69.2305 85.8974C69.2305 86.6923 69.7176 87.1794 70.5125 87.1794C71.3074 87.1794 71.7946 86.6923 71.7946 85.8974C71.7946 85.1025 71.3074 84.6153 70.5125 84.6153C70.2988 84.6153 69.9912 84.6837 69.8288 84.7692Z" fill="black"/>
  </g>
  <defs>
    <clipPath id="clip0_12403_14440">
      <rect width="86.75" height="86.75" fill="white" transform="translate(6.62207 6.62256)"/>
    </clipPath>
  </defs>
</svg>
