<svg width="70" height="37" viewBox="0 0 70 37" fill="none" xmlns="http://www.w3.org/2000/svg">
<path fill-rule="evenodd" clip-rule="evenodd" d="M15.3686 13.5626C14.0098 11.5398 11.1644 10.9205 8.18018 11.7267C6.01049 8.93807 3.68374 7.45762 2.16058 8.18319C0.440171 9.00403 0.250233 12.4047 1.47022 16.4832C-0.140603 18.8541 -0.509523 21.5219 0.772564 23.4274C1.87202 25.0654 3.95039 25.7836 6.28444 25.5674C8.29706 27.9384 10.3827 29.1366 11.7817 28.4697C13.1734 27.8064 13.5642 25.4538 13.0163 22.4197C15.9421 19.7043 17.0087 16.0068 15.3686 13.5626ZM3.91386 9.61233C4.77954 9.18725 6.18582 10.118 7.62497 11.8916C6.61683 12.2214 5.60139 12.7161 4.62978 13.3721C4.23529 13.6396 3.86272 13.9254 3.51207 14.2222C2.91668 11.8623 3.01165 10.0557 3.91386 9.61233ZM6.99306 21.7417C6.35384 20.8256 5.72558 19.7593 5.15211 18.5903C4.59691 17.458 4.14763 16.3403 3.81889 15.2996C4.20607 14.9441 4.63709 14.5997 5.10098 14.2809C6.1566 13.5553 7.2524 13.0496 8.28976 12.7638C8.96915 13.7165 9.63759 14.8379 10.2476 16.0765C10.6932 16.9816 11.0658 17.8757 11.369 18.7295C10.8101 19.3562 10.1307 19.9608 9.34903 20.4958C8.57101 21.0308 7.77108 21.4449 6.99306 21.7417ZM1.7186 21.1701C1.11591 20.2869 1.22184 19.041 1.88297 17.7548C2.17884 18.5756 2.52584 19.4148 2.92399 20.2576C3.25638 20.9612 3.61434 21.6355 3.98326 22.2731C2.98973 22.2071 2.18249 21.8443 1.7186 21.1701ZM11.4822 25.0581C11.0146 25.2889 10.39 25.124 9.68873 24.6403C10.306 24.3618 10.916 24.021 11.5114 23.6179C11.7707 23.4421 12.0191 23.2588 12.2602 23.0719C12.2529 24.0833 12.0045 24.7979 11.4822 25.0581ZM11.7963 18.2092C11.5625 17.6119 11.3032 17.0036 11.0146 16.3989C10.3572 15.0101 9.61933 13.7422 8.84496 12.6319C10.5581 12.2874 12.0301 12.5989 12.7204 13.6139C13.5094 14.7646 13.0821 16.5382 11.7963 18.2092Z" fill="#696C70"/>
<path fill-rule="evenodd" clip-rule="evenodd" d="M28.3827 18.8542C28.3827 18.059 28.0174 17.4763 27.2833 17.0183C26.5527 16.5895 25.5154 16.377 24.142 16.377C22.7101 16.377 21.6399 16.5895 20.9093 17.0183C20.1788 17.447 19.8099 18.0883 19.8099 18.8835C19.8391 19.5248 20.0546 20.0781 20.5112 20.4738C21.0007 20.8733 21.6399 21.1151 22.4617 21.2067L24.6862 21.39C25.1757 21.4193 25.5081 21.4523 25.7528 21.5439C25.9646 21.6355 26.0888 21.7894 26.0888 22.0019C26.0888 22.2145 25.9354 22.3977 25.6322 22.5223C25.3583 22.6762 24.9309 22.7348 24.383 22.7348C23.6525 22.7348 23.1338 22.6725 22.7649 22.4893C22.3741 22.3391 22.1914 22.0716 22.1549 21.6831C22.1549 21.6721 22.1439 21.6611 22.133 21.6611H19.5871C19.5725 21.6611 19.5615 21.6721 19.5652 21.6868C19.6309 22.5626 20.029 23.2588 20.7815 23.7132C21.5741 24.1713 22.7028 24.3875 24.1675 24.3875C25.6615 24.3875 26.7609 24.142 27.5207 23.6839C28.2512 23.2259 28.6201 22.5223 28.6201 21.6355C28.6201 20.9942 28.4083 20.4738 27.948 20.0744C27.4915 19.708 26.8486 19.4625 25.9646 19.4002L24.2552 19.2792C23.616 19.2499 23.1594 19.1583 22.8562 19.0667C22.8526 19.0667 22.8526 19.0667 22.8489 19.063C22.5457 18.9421 22.396 18.7882 22.396 18.5757C22.396 18.3631 22.5165 18.2092 22.7941 18.0846C23.0681 17.9637 23.4662 17.8721 23.9849 17.8721C24.5949 17.8721 25.0515 17.9637 25.3583 18.1176C25.687 18.2678 25.8697 18.506 25.9354 18.8322C25.9391 18.8432 25.9464 18.8505 25.9573 18.8505L28.3827 18.8542Z" fill="#696C70"/>
<path fill-rule="evenodd" clip-rule="evenodd" d="M28.7461 20.382C28.7461 21.6059 29.2027 22.5843 30.0866 23.3209C30.9706 24.0245 32.1906 24.3909 33.7758 24.3909C35.3319 24.3909 36.5811 24.0245 37.4358 23.3209C38.3197 22.588 38.7763 21.6059 38.7763 20.382C38.7763 19.1287 38.3197 18.1503 37.465 17.4431C36.5811 16.7395 35.3611 16.373 33.7758 16.373C32.1577 16.373 30.9413 16.7395 30.0537 17.4431C29.2027 18.1503 28.7461 19.1287 28.7461 20.382ZM31.3979 20.382C31.3979 19.7077 31.6098 19.1874 32.0371 18.7586C32.4645 18.3592 33.0453 18.1466 33.7758 18.1466C34.4771 18.1466 35.0579 18.3592 35.4524 18.7586C35.8798 19.1544 36.0916 19.7041 36.1245 20.3747C36.1245 20.3783 36.1245 20.382 36.1245 20.382C36.0916 21.0233 35.8798 21.5729 35.4524 21.9687C35.0579 22.3645 34.4771 22.5807 33.7795 22.61C33.7758 22.61 33.7758 22.61 33.7722 22.61C33.0416 22.5807 32.4645 22.3938 32.0371 21.9687C31.6134 21.5766 31.3979 21.0562 31.3979 20.382Z" fill="#696C70"/>
<path fill-rule="evenodd" clip-rule="evenodd" d="M45.0294 14.0719V24.1235C45.0294 24.1345 45.0184 24.1455 45.0075 24.1455H42.5529C42.5419 24.1455 42.531 24.1345 42.531 24.1235V14.0719C42.531 14.0609 42.5419 14.0499 42.5529 14.0499H45.0075C45.0221 14.0499 45.0294 14.0609 45.0294 14.0719ZM41.7055 14.0719V24.1235C41.7055 24.1345 41.6945 24.1455 41.6835 24.1455H39.2289C39.218 24.1455 39.207 24.1345 39.207 24.1235V14.0719C39.207 14.0609 39.218 14.0499 39.2289 14.0499H41.6835C41.6945 14.0499 41.7055 14.0609 41.7055 14.0719Z" fill="#696C70"/>
<path fill-rule="evenodd" clip-rule="evenodd" d="M54.8204 21.6978H52.154C52.1467 21.6978 52.1357 21.7014 52.1321 21.7124C51.9787 22.0422 51.7668 22.3134 51.4381 22.4966C51.102 22.6799 50.6783 22.7715 50.2217 22.8008C50.2181 22.8008 50.2181 22.8008 50.2144 22.8008C49.6081 22.7715 49.1515 22.6176 48.7862 22.2804C48.4246 21.9799 48.2128 21.5585 48.2055 20.9905C48.2055 20.9759 48.2164 20.9649 48.2274 20.9649H54.9812C54.9921 20.9649 55.0031 20.9539 55.0031 20.9429V20.6607C54.9739 19.2829 54.5757 18.2129 53.7539 17.48C52.932 16.7471 51.7412 16.377 50.2144 16.377C48.7205 16.377 47.5297 16.7434 46.7079 17.447C45.886 18.1506 45.4587 19.129 45.4258 20.3859C45.455 21.6098 45.8824 22.5882 46.7079 23.3248C47.5626 24.0284 48.7205 24.3948 50.2144 24.3948C51.4052 24.3948 52.3805 24.1493 53.1731 23.6913C53.9548 23.2075 54.5027 22.5736 54.8387 21.7344C54.8497 21.7161 54.8387 21.6978 54.8204 21.6978ZM48.2931 19.4331C48.2785 19.4331 48.2676 19.4221 48.2712 19.4075C48.337 18.9311 48.5488 18.572 48.8776 18.3338C49.2428 18.059 49.6994 17.9051 50.2802 17.9051C50.861 17.9051 51.3175 18.059 51.6828 18.3338C52.0115 18.5757 52.2234 18.9311 52.2599 19.4112C52.2599 19.4258 52.249 19.4368 52.238 19.4368H48.2931V19.4331Z" fill="#696C70"/>
<path fill-rule="evenodd" clip-rule="evenodd" d="M58.0021 16.6201H55.6059C55.5949 16.6201 55.584 16.6311 55.584 16.6421V24.092C55.584 24.103 55.5949 24.114 55.6059 24.114H58.0021C58.013 24.114 58.024 24.103 58.024 24.092V20.7793C58.0532 20.0134 58.2358 19.4015 58.6632 19.0057C59.0613 18.5769 59.6384 18.3644 60.3398 18.3644C60.4932 18.3644 60.6429 18.3644 60.7963 18.3644C60.9278 18.3644 61.0374 18.3644 61.1032 18.3827C61.1178 18.3864 61.1324 18.3754 61.1324 18.3607V16.4039C61.0411 16.4039 60.9205 16.3746 60.7671 16.3746C60.6466 16.3746 60.5224 16.3746 60.4311 16.3746C60.0037 16.3453 59.5764 16.4662 59.1819 16.6788C58.7983 16.8546 58.4185 17.1771 58.0605 17.5546C58.0459 17.5692 58.0203 17.5582 58.0203 17.5399V16.6421C58.024 16.6311 58.013 16.6201 58.0021 16.6201Z" fill="#696C70"/>
<path fill-rule="evenodd" clip-rule="evenodd" d="M69.7413 18.8542C69.7523 18.8542 69.7632 18.8432 69.7632 18.8322C69.7559 18.048 69.3614 17.4726 68.6638 17.0183C67.9332 16.5895 66.863 16.377 65.4933 16.377C64.0906 16.377 63.0241 16.5895 62.2899 17.0183C61.5557 17.447 61.1904 18.0883 61.1904 18.8835C61.1904 19.5248 61.4352 20.0781 61.8917 20.4738C62.3483 20.8696 62.9912 21.1151 63.8423 21.2067L66.0667 21.39C66.5233 21.4193 66.8886 21.4523 67.1041 21.5439C67.3488 21.6355 67.4401 21.7894 67.4401 22.0019C67.4401 22.2145 67.2867 22.4014 67.0128 22.5223C66.7096 22.6762 66.2822 22.7348 65.7307 22.7348C65.0294 22.7348 64.4815 22.6725 64.1126 22.4893C63.7546 22.3391 63.5391 22.0716 63.5026 21.6831C63.5026 21.6721 63.4916 21.6611 63.4806 21.6611H60.9347C60.9201 21.6611 60.9092 21.6721 60.9128 21.6868C60.9786 22.5626 61.4059 23.2588 62.162 23.7132C62.9254 24.1713 64.0541 24.3875 65.5481 24.3875C67.0128 24.3875 68.1414 24.142 68.872 23.6839C69.6354 23.2259 70.0007 22.5223 70.0007 21.6355C70.0007 20.9942 69.7559 20.4738 69.2993 20.0744C68.872 19.708 68.1999 19.4625 67.3488 19.4002L65.6102 19.2792C65.0038 19.2499 64.5144 19.1583 64.2112 19.0667C64.2075 19.0667 64.2075 19.0667 64.2039 19.063C63.9007 18.9421 63.7509 18.7882 63.7509 18.5757V18.572C63.7838 18.3594 63.9043 18.2055 64.1783 18.0846C64.4523 17.9637 64.8504 17.8721 65.3691 17.8721C65.9498 17.8721 66.4064 17.9637 66.7425 18.1176C67.0383 18.2642 67.2465 18.4987 67.2867 18.8212C67.2904 18.8395 67.305 18.8505 67.3196 18.8505H69.7413V18.8542Z" fill="#696C70"/>
</svg>
