<svg width="71" height="37" viewBox="0 0 71 37" fill="none" xmlns="http://www.w3.org/2000/svg">
<g clip-path="url(#clip0_176_16079)">
<g clip-path="url(#clip1_176_16079)">
<path d="M68.4357 26.3262H3.96289L4.57183 24.7984H69.0462L68.4357 26.3262Z" fill="#696C70"/>
<path d="M67.2375 22.2856C66.9399 22.2856 67.0406 21.944 67.0406 21.944L68.0174 19.6553L65.1619 19.6598L64.643 20.8751H66.1005L65.4962 22.2856H59.1992C58.8787 22.2978 58.955 22.0386 58.955 22.0386L59.8265 19.6568L58.4743 19.6598L57.5159 22.2383C57.4808 22.3207 57.3571 22.4609 57.1313 22.4091C56.884 22.3329 57.0199 21.9898 57.0199 21.9898L57.7967 19.6598H56.4414L55.5624 22.2856H50.0667C50.4146 21.0459 49.4211 20.5503 49.4211 20.5503C52.7985 17.275 50.0255 14.7148 50.0255 14.7148L46.7961 22.2856C46.7961 22.2856 41.1981 22.2902 40.6228 22.2856C40.0474 22.281 40.2351 21.9913 40.3419 21.8983C40.8242 21.4591 42.8159 19.6568 42.8159 19.6568H41.0776L39.2675 21.1892L41.4255 16.1329H39.7361L37.4148 22.281C37.4148 22.281 31.6764 22.2825 30.6386 22.2841C30.5272 22.2841 30.4249 22.217 30.3868 22.1118C30.3059 21.8937 30.3196 21.6192 30.4432 21.3646C30.6554 20.927 31.1132 20.7104 31.4658 20.8812C31.6688 20.9803 31.7924 21.1862 31.8198 21.4256H32.937C32.9507 20.6738 32.6211 20.0014 32.0106 19.7056C31.101 19.2634 29.9167 19.823 29.3673 20.9544C29.1521 21.3966 29.0682 21.8586 29.0972 22.2871H24.3416C24.7339 21.1938 24.3966 20.0685 23.5129 19.6858C22.582 19.2817 21.3961 19.8687 20.8971 21.0169C20.7124 21.4424 20.6331 21.8815 20.6529 22.2856H16.1324C15.3373 22.2353 15.5952 21.4439 15.5952 21.4439L18.4262 14.8429H16.34L14.2537 20.0044C13.5883 21.3661 12.9794 21.7366 12.8542 21.787C11.8271 22.2017 12.0194 20.9468 12.0194 20.9468C17.4296 15.5367 13.9027 10.3264 13.9027 10.3264L10.1773 20.6494C4.91205 22.9321 2.37862 19.9053 2.37862 19.9053L0.988281 22.6836C5.70718 25.4633 9.93008 22.435 9.93008 22.435C10.2674 23.4475 10.7359 23.8882 11.2273 24.0041C12.6726 24.2724 13.7043 22.7324 13.7043 22.7324C14.0202 23.7113 14.8443 23.7997 14.9588 23.8013C15.0732 23.8028 19.2809 23.8013 19.2809 23.8013C20.3736 23.8013 20.8559 23.1227 20.8681 23.1227C21.0268 23.4292 21.2695 23.6747 21.5945 23.8165C22.3225 24.1321 23.2413 23.8287 23.8456 23.1319C24.0715 23.7662 24.6286 23.8013 24.6286 23.8013C24.6286 23.8013 27.3985 23.8043 28.0563 23.8013C28.6973 23.7982 29.3017 23.17 29.3337 23.138C29.4909 23.4246 29.7412 23.783 30.1807 23.8013C30.1807 23.8013 35.4323 23.8013 35.8123 23.8013C36.3525 23.8028 37.1095 23.1273 37.1095 23.1273L36.8318 23.8013H38.1504L38.6159 22.7141C38.9363 23.664 39.6903 23.7997 39.7849 23.8013C39.8795 23.8028 45.5523 23.8013 45.5523 23.8013C46.3794 23.8135 46.9395 23.1197 46.9395 23.1197C47.2494 23.693 47.5912 23.8912 47.9529 23.9293C48.8976 24.03 49.5203 23.327 49.5203 23.327C49.6195 23.7235 49.9812 23.8013 50.0682 23.8013C50.1552 23.8013 54.1858 23.8013 54.1858 23.8013C55.0603 23.7159 55.538 23.141 55.538 23.141C55.7348 23.7525 56.1973 23.9019 56.5162 23.937C57.4106 23.9964 57.8669 23.1303 57.8669 23.1303C58.1797 23.722 58.6864 23.8028 58.8116 23.8028C58.9367 23.8028 64.3195 23.8028 64.3195 23.8028C65.0643 23.7525 65.4122 23.1258 65.4122 23.1258C65.5847 23.6854 65.9159 23.8043 66.0776 23.8028C66.2394 23.8028 69.4871 23.8028 69.4871 23.8028L70.1372 22.2841H67.2436L67.2375 22.2856ZM14.0858 14.9908C14.0858 14.9908 14.5498 16.7444 12.5963 18.8288L14.0858 14.9908ZM23.2092 21.9303C23.0185 22.3679 22.5453 22.5997 22.1897 22.4457C21.8342 22.2917 21.7334 21.8159 21.9227 21.3783C22.1134 20.9407 22.5652 20.7165 22.9193 20.8705C23.2749 21.0246 23.3985 21.4942 23.2077 21.9303H23.2092ZM50.1475 17.1744C50.1475 17.1744 50.0819 19.0941 48.8228 20.1859L50.1475 17.1744ZM49.209 22.13C49.1067 22.4899 48.7694 22.708 48.4566 22.618C48.1437 22.528 47.9728 22.1651 48.075 21.8068C48.1773 21.4469 48.5145 21.2289 48.8274 21.3188C49.1403 21.4088 49.3112 21.7717 49.209 22.13Z" fill="#696C70"/>
</g>
</g>
<defs>
<clipPath id="clip0_176_16079">
<rect width="69.1429" height="36.6527" fill="white" transform="translate(0.982422)"/>
</clipPath>
<clipPath id="clip1_176_16079">
<rect width="69.1429" height="16" fill="white" transform="translate(0.982422 10.3264)"/>
</clipPath>
</defs>
</svg>
